<svg width="25" height="24" viewBox="0 0 25 24" fill="none" xmlns="http://www.w3.org/2000/svg">
<path d="M16.2501 9.23078H15.0193V8.3077C15.0193 8.13847 14.8808 8.00001 14.7116 8.00001C14.5424 8.00001 14.4039 8.13847 14.4039 8.3077V9.23078H13.1732C13.0039 9.23078 12.8655 9.36924 12.8655 9.53847V14.4615C12.8655 14.6308 13.0039 14.7692 13.1732 14.7692H14.4039V15.6923C14.4039 15.8615 14.5424 16 14.7116 16C14.8808 16 15.0193 15.8615 15.0193 15.6923V14.7692H16.2501C16.4193 14.7692 16.5578 14.6308 16.5578 14.4615V9.53847C16.5578 9.36924 16.4193 9.23078 16.2501 9.23078ZM15.9424 14.1539H13.4808V9.84616H15.9424V14.1539ZM11.327 4.3077H10.0962V2.76924C10.0962 2.60001 9.95777 2.46155 9.78854 2.46155C9.61931 2.46155 9.48084 2.60001 9.48084 2.76924V4.3077H8.25008C8.08084 4.3077 7.94238 4.44616 7.94238 4.61539V19.3846C7.94238 19.5539 8.08084 19.6923 8.25008 19.6923H9.48084V21.2308C9.48084 21.4 9.61931 21.5385 9.78854 21.5385C9.95777 21.5385 10.0962 21.4 10.0962 21.2308V19.6923H11.327C11.4962 19.6923 11.6347 19.5539 11.6347 19.3846V4.61539C11.6347 4.44616 11.4962 4.3077 11.327 4.3077ZM11.0193 19.0769H8.55777V4.92309H11.0193V19.0769Z" fill="#A7A7A7"/>
</svg>
