<svg width="25" height="24" viewBox="0 0 25 24" fill="none" xmlns="http://www.w3.org/2000/svg">
<path d="M22.8694 13.7804C22.7388 12.7786 22.4163 11.7853 21.9144 10.9066C21.666 10.4715 21.3595 10.0469 20.9705 9.72654C20.5618 9.39006 20.0566 9.17958 19.5545 9.02382C18.3094 8.63766 16.9591 8.63022 15.7342 9.00534C15.7567 7.44702 15.7793 5.88894 15.8019 4.33062C15.8045 4.14486 15.69 4.03494 15.552 3.99798C15.4951 3.91518 15.402 3.8571 15.2698 3.85902C12.5806 3.89814 9.89138 3.93726 7.20218 3.97638C7.02794 3.73086 6.54242 3.79734 6.5441 4.17894C6.55418 6.70326 6.56426 9.22734 6.57434 11.7517C6.57434 11.762 6.5765 11.7706 6.57722 11.7805C5.11298 13.8519 3.64898 15.9236 2.18474 17.995C2.16122 18.0284 2.14658 18.0615 2.13602 18.0941C2.04146 18.3111 2.14394 18.6157 2.44802 18.6039C5.99234 18.4652 9.53666 18.3265 13.0807 18.1877C14.4425 19.7674 16.6495 20.5323 18.7133 20.0129C21.4913 19.3138 23.1917 16.58 22.8694 13.7804ZM15.0783 4.58166L15.0101 9.27846C15.0101 9.27942 15.0103 9.28014 15.0103 9.2811C14.3026 9.60366 13.6572 10.0652 13.1292 10.6745C12.8429 11.0053 12.6003 11.3619 12.3996 11.7358C11.5416 10.5193 10.6836 9.30294 9.82562 8.08638C9.71378 7.92774 9.51098 7.8531 9.33314 7.95726C9.30578 7.97334 9.28154 7.99494 9.25922 8.01894C9.22946 8.04174 9.20114 8.06814 9.17666 8.10294C8.54786 8.99262 7.91906 9.88206 7.29026 10.7717C7.28426 9.28398 7.2785 7.79598 7.2725 6.30822C9.18218 6.23814 11.0919 6.16806 13.0015 6.09798C13.4635 6.08094 13.4657 5.36094 13.0015 5.37798C11.0909 5.44806 9.18026 5.51814 7.26962 5.58822C7.26842 5.29062 7.26722 4.99302 7.26602 4.69566C9.87026 4.6575 12.4743 4.61958 15.0783 4.58166ZM3.16178 17.8558C5.27666 14.8635 7.39178 11.8714 9.50666 8.8791C9.67922 9.12366 9.85178 9.36822 10.0243 9.61302C9.45074 10.4854 8.8769 11.3576 8.3033 12.23C8.1965 12.3925 8.2709 12.6281 8.43242 12.7225C8.6081 12.8252 8.81786 12.7563 8.9249 12.5933C9.4397 11.8105 9.95474 11.0273 10.4695 10.2445C10.9891 10.9813 11.509 11.7181 12.0286 12.4549C12.0387 12.469 12.0502 12.4817 12.0615 12.4945C11.5063 14.0213 11.6059 15.7441 12.4155 17.2345C12.4627 17.3216 12.516 17.4041 12.5679 17.4881C9.4325 17.6103 6.29714 17.7332 3.16178 17.8558ZM19.29 19.0597C17.3187 19.9227 14.9271 19.3141 13.5699 17.6607C13.5451 17.5988 13.5036 17.5453 13.4453 17.5093C13.4441 17.5078 13.4429 17.5064 13.4417 17.5049C12.1704 15.8117 12.0847 13.4881 13.2382 11.7161C14.3921 9.9435 16.4969 9.18774 18.5494 9.52638C19.1155 9.61974 19.6872 9.78366 20.1919 10.0616C20.5954 10.2838 20.899 10.6429 21.1452 11.0259C21.6675 11.8388 22.0243 12.8213 22.1494 13.7804C22.4014 15.9694 21.3543 18.1558 19.29 19.0597Z" fill="#A7A7A7"/>
<path d="M17.57 17.7813C17.4634 17.7866 17.3569 17.7871 17.2501 17.7813C17.1999 17.7787 17.15 17.7746 17.1001 17.7693C17.0957 17.7688 17.0665 17.7652 17.054 17.7638C17.041 17.7616 17.0134 17.7573 17.0093 17.7566C16.7989 17.7211 16.5922 17.6637 16.3935 17.586C16.3381 17.5644 16.262 17.5293 16.171 17.4818C16.0765 17.4324 15.9843 17.3781 15.8955 17.3193C15.8537 17.2915 15.8127 17.2624 15.7721 17.2332C15.7669 17.2293 15.7544 17.2197 15.7484 17.2152C15.7311 17.2015 15.7141 17.1875 15.697 17.1734C15.6104 17.1009 15.5285 17.0229 15.4503 16.9413C15.3159 16.8009 15.0766 16.8059 14.9413 16.9413C14.8009 17.0817 14.8064 17.3095 14.9413 17.4503C15.6154 18.1543 16.5956 18.5491 17.57 18.5013C17.7579 18.4922 17.9391 18.3424 17.93 18.1413C17.9218 17.9541 17.7716 17.7715 17.57 17.7813ZM19.1139 17.4184C18.6507 17.4184 18.6497 18.1384 19.1139 18.1384C19.5771 18.1384 19.5781 17.4184 19.1139 17.4184Z" fill="#A7A7A7"/>
</svg>
