<svg width="16" height="16" viewBox="0 0 16 16" fill="none" xmlns="http://www.w3.org/2000/svg">
<g clip-path="url(#clip0_0_1452)">
<path fill-rule="evenodd" clip-rule="evenodd" d="M8.00004 1.83337C4.59429 1.83337 1.83337 4.59429 1.83337 8.00004C1.83337 11.4058 4.59429 14.1667 8.00004 14.1667C11.4058 14.1667 14.1667 11.4058 14.1667 8.00004C14.1667 4.59429 11.4058 1.83337 8.00004 1.83337ZM0.833374 8.00004C0.833374 4.042 4.042 0.833374 8.00004 0.833374C11.9581 0.833374 15.1667 4.042 15.1667 8.00004C15.1667 11.9581 11.9581 15.1667 8.00004 15.1667C4.042 15.1667 0.833374 11.9581 0.833374 8.00004Z" fill="#D53427"/>
<mask id="mask0_0_1452" style="mask-type:alpha" maskUnits="userSpaceOnUse" x="0" y="0" width="8" height="16">
<path d="M0 0H8V16H0V0Z" fill="#D9D9D9"/>
</mask>
<g mask="url(#mask0_0_1452)">
<path fill-rule="evenodd" clip-rule="evenodd" d="M8.00004 1.83337C4.59429 1.83337 1.83337 4.59429 1.83337 8.00004C1.83337 11.4058 4.59429 14.1667 8.00004 14.1667C11.4058 14.1667 14.1667 11.4058 14.1667 8.00004C14.1667 4.59429 11.4058 1.83337 8.00004 1.83337ZM0.833374 8.00004C0.833374 4.042 4.042 0.833374 8.00004 0.833374C11.9581 0.833374 15.1667 4.042 15.1667 8.00004C15.1667 11.9581 11.9581 15.1667 8.00004 15.1667C4.042 15.1667 0.833374 11.9581 0.833374 8.00004Z" fill="#3787FF"/>
</g>
<path fill-rule="evenodd" clip-rule="evenodd" d="M8 4.83337C8.27613 4.83337 8.5 5.05723 8.5 5.33337V7.79291L10.0202 9.31317C10.2155 9.50844 10.2155 9.82497 10.0202 10.0202C9.82493 10.2155 9.5084 10.2155 9.31313 10.0202L7.64647 8.35357C7.55267 8.25984 7.5 8.13264 7.5 8.00004V5.33337C7.5 5.05723 7.72387 4.83337 8 4.83337Z" fill="#FFFCFC"/>
</g>
<defs>
<clipPath id="clip0_0_1452">
<rect width="16" height="16" fill="white"/>
</clipPath>
</defs>
</svg>
