<svg width="31" height="31" viewBox="0 0 31 31" fill="none" xmlns="http://www.w3.org/2000/svg">
<path d="M21.4697 12.3348L21.1547 21.8704C21.1278 22.687 20.7838 23.4611 20.1956 24.0283C19.6074 24.5954 18.8213 24.9111 18.0042 24.9082H12.0184C11.2018 24.9111 10.4162 24.5959 9.82811 24.0294C9.24 23.4629 8.89562 22.6896 8.86798 21.8735L8.55294 12.3348C8.54604 12.1259 8.62241 11.9228 8.76524 11.7702C8.90807 11.6177 9.10567 11.5281 9.31455 11.5212C9.52344 11.5143 9.72651 11.5907 9.87909 11.7335C10.0317 11.8763 10.1213 12.0739 10.1282 12.2828L10.4432 21.8207C10.4589 22.2279 10.6317 22.6132 10.9255 22.8956C11.2192 23.178 11.6109 23.3356 12.0184 23.3353H18.0042C18.4122 23.3356 18.8044 23.1775 19.0982 22.8944C19.392 22.6114 19.5646 22.2253 19.5795 21.8176L19.8945 12.2828C19.9014 12.0739 19.991 11.8763 20.1436 11.7335C20.2961 11.5907 20.4992 11.5143 20.7081 11.5212C20.917 11.5281 21.1146 11.6177 21.2574 11.7702C21.4002 11.9228 21.4766 12.1259 21.4697 12.3348ZM22.5117 9.16151C22.5117 9.37039 22.4287 9.57073 22.281 9.71843C22.1333 9.86614 21.933 9.94912 21.7241 9.94912H8.29933C8.09044 9.94912 7.89011 9.86614 7.7424 9.71843C7.5947 9.57073 7.51172 9.37039 7.51172 9.16151C7.51172 8.95262 7.5947 8.75229 7.7424 8.60459C7.89011 8.45688 8.09044 8.3739 8.29933 8.3739H10.7409C10.9905 8.37457 11.2313 8.28237 11.4167 8.11525C11.602 7.94812 11.7185 7.71802 11.7435 7.46973C11.8017 6.88728 12.0745 6.34733 12.509 5.95508C12.9435 5.56283 13.5084 5.34639 14.0938 5.34791H15.9289C16.5142 5.34639 17.0792 5.56283 17.5136 5.95508C17.9481 6.34733 18.221 6.88728 18.2791 7.46973C18.3041 7.71802 18.4207 7.94812 18.606 8.11525C18.7913 8.28237 19.0322 8.37457 19.2817 8.3739H21.7233C21.9322 8.3739 22.1325 8.45688 22.2802 8.60459C22.4279 8.75229 22.5109 8.95262 22.5109 9.16151H22.5117ZM13.1108 8.3739H16.9134C16.8099 8.13741 16.7422 7.88683 16.7126 7.6304C16.693 7.43626 16.6022 7.25627 16.4575 7.12531C16.3129 6.99435 16.1248 6.92174 15.9297 6.92155H14.0945C13.8994 6.92174 13.7113 6.99435 13.5667 7.12531C13.4221 7.25627 13.3312 7.43626 13.3117 7.6304C13.2818 7.88687 13.2146 8.13746 13.1108 8.3739ZM13.9039 20.307V13.6005C13.9039 13.3916 13.821 13.1913 13.6733 13.0435C13.5256 12.8958 13.3252 12.8129 13.1163 12.8129C12.9075 12.8129 12.7071 12.8958 12.5594 13.0435C12.4117 13.1913 12.3287 13.3916 12.3287 13.6005V20.3101C12.3287 20.519 12.4117 20.7193 12.5594 20.867C12.7071 21.0147 12.9075 21.0977 13.1163 21.0977C13.3252 21.0977 13.5256 21.0147 13.6733 20.867C13.821 20.7193 13.9039 20.519 13.9039 20.3101V20.307ZM17.6955 20.307V13.6005C17.6955 13.3916 17.6125 13.1913 17.4648 13.0435C17.3171 12.8958 17.1168 12.8129 16.9079 12.8129C16.699 12.8129 16.4987 12.8958 16.351 13.0435C16.2033 13.1913 16.1203 13.3916 16.1203 13.6005V20.3101C16.1203 20.519 16.2033 20.7193 16.351 20.867C16.4987 21.0147 16.699 21.0977 16.9079 21.0977C17.1168 21.0977 17.3171 21.0147 17.4648 20.867C17.6125 20.7193 17.6955 20.519 17.6955 20.3101V20.307Z" fill="#D53427"/>
</svg>
