<svg width="18" height="18" viewBox="0 0 18 18" fill="none" xmlns="http://www.w3.org/2000/svg">
<path d="M3.21547 14.0383H6.68619C6.79392 14.039 6.90071 14.0183 7.00044 13.9776C7.10017 13.9368 7.19089 13.8768 7.26737 13.801L12.9319 8.12829L15.2566 5.85267C15.3333 5.77657 15.3942 5.68604 15.4358 5.58629C15.4773 5.48654 15.4987 5.37955 15.4987 5.27149C15.4987 5.16343 15.4773 5.05644 15.4358 4.95669C15.3942 4.85694 15.3333 4.7664 15.2566 4.69031L11.7859 1.17865C11.7098 1.10193 11.6192 1.04103 11.5195 0.999477C11.4197 0.957919 11.3127 0.936523 11.2047 0.936523C11.0966 0.936523 10.9896 0.957919 10.8899 0.999477C10.7901 1.04103 10.6996 1.10193 10.6235 1.17865L8.31514 3.4952L2.63428 9.16787C2.55842 9.24435 2.4984 9.33506 2.45766 9.4348C2.41693 9.53453 2.39628 9.64132 2.3969 9.74905V13.2198C2.3969 13.4369 2.48314 13.6451 2.63665 13.7986C2.79016 13.9521 2.99837 14.0383 3.21547 14.0383ZM11.2047 2.91402L13.5212 5.23056L12.3589 6.39292L10.0423 4.07638L11.2047 2.91402ZM4.03403 10.0847L8.88813 5.23056L11.2047 7.5471L6.35058 12.4012H4.03403V10.0847ZM16.3125 15.6755H1.57833C1.36124 15.6755 1.15303 15.7617 0.999518 15.9152C0.846007 16.0687 0.759766 16.2769 0.759766 16.494C0.759766 16.7111 0.846007 16.9193 0.999518 17.0729C1.15303 17.2264 1.36124 17.3126 1.57833 17.3126H16.3125C16.5296 17.3126 16.7378 17.2264 16.8914 17.0729C17.0449 16.9193 17.1311 16.7111 17.1311 16.494C17.1311 16.2769 17.0449 16.0687 16.8914 15.9152C16.7378 15.7617 16.5296 15.6755 16.3125 15.6755Z" fill="#A7A7A7"/>
</svg>
