<svg width="31" height="31" viewBox="0 0 31 31" fill="none" xmlns="http://www.w3.org/2000/svg">
<path fill-rule="evenodd" clip-rule="evenodd" d="M7.96826 20.2096C7.96826 20.4791 8.07534 20.7376 8.26593 20.9282C8.45652 21.1188 8.71502 21.2259 8.98456 21.2259L10.1736 21.2259C10.3836 21.821 10.773 22.3363 11.2881 22.7008C11.8032 23.0653 12.4187 23.261 13.0498 23.261C13.6808 23.261 14.2963 23.0653 14.8114 22.7008C15.3266 22.3363 15.7159 21.821 15.9259 21.2259L25.2454 21.2259C25.515 21.2259 25.7735 21.1188 25.9641 20.9282C26.1546 20.7376 26.2617 20.4791 26.2617 20.2096C26.2617 19.94 26.1546 19.6815 25.9641 19.491C25.7735 19.3004 25.515 19.1933 25.2454 19.1933L15.9259 19.1933C15.7159 18.5982 15.3266 18.0829 14.8114 17.7184C14.2963 17.3539 13.6808 17.1582 13.0498 17.1582C12.4187 17.1582 11.8032 17.3539 11.2881 17.7184C10.773 18.0829 10.3836 18.5982 10.1736 19.1933L8.98456 19.1933C8.71502 19.1933 8.45652 19.3004 8.26593 19.491C8.07534 19.6815 7.96826 19.94 7.96826 20.2096ZM13.0498 19.1933C13.3193 19.1933 13.5778 19.3004 13.7684 19.491C13.959 19.6815 14.0661 19.94 14.0661 20.2096C14.0661 20.4791 13.959 20.7376 13.7684 20.9282C13.5778 21.1188 13.3193 21.2259 13.0498 21.2259C12.7802 21.2259 12.5217 21.1188 12.3311 20.9282C12.1405 20.7376 12.0335 20.4791 12.0335 20.2096C12.0335 19.94 12.1405 19.6815 12.3311 19.491C12.5217 19.3004 12.7802 19.1933 13.0498 19.1933ZM7.96826 10.0466C7.96826 10.3161 8.07534 10.5746 8.26593 10.7652C8.45652 10.9558 8.71502 11.0629 8.98456 11.0629L17.2878 11.0629C17.4977 11.6579 17.8871 12.1732 18.4022 12.5377C18.9174 12.9022 19.5329 13.098 20.1639 13.098C20.7949 13.098 21.4104 12.9022 21.9256 12.5377C22.4407 12.1732 22.8301 11.6579 23.04 11.0629L25.2454 11.0629C25.515 11.0629 25.7735 10.9558 25.964 10.7652C26.1546 10.5746 26.2617 10.3161 26.2617 10.0466C26.2617 9.77701 26.1546 9.51851 25.964 9.32792C25.7735 9.13732 25.515 9.03025 25.2454 9.03025L23.04 9.03025C22.8301 8.43517 22.4407 7.91987 21.9256 7.55538C21.4104 7.19089 20.7949 6.99515 20.1639 6.99515C19.5329 6.99515 18.9174 7.19089 18.4022 7.55538C17.8871 7.91987 17.4977 8.43517 17.2878 9.03025L8.98456 9.03025C8.71502 9.03025 8.45652 9.13733 8.26593 9.32792C8.07534 9.51851 7.96826 9.77701 7.96826 10.0466ZM20.1639 9.03025C20.4334 9.03025 20.6919 9.13732 20.8825 9.32792C21.0731 9.51851 21.1802 9.77701 21.1802 10.0466C21.1802 10.3161 21.0731 10.5746 20.8825 10.7652C20.6919 10.9558 20.4334 11.0629 20.1639 11.0629C19.8944 11.0629 19.6359 10.9558 19.4453 10.7652C19.2547 10.5746 19.1476 10.3161 19.1476 10.0466C19.1476 9.77701 19.2547 9.51851 19.4453 9.32792C19.6359 9.13732 19.8944 9.03025 20.1639 9.03025Z" fill="#A7A7A7"/>
</svg>
