<svg width="16" height="12" viewBox="0 0 16 12" fill="none" xmlns="http://www.w3.org/2000/svg">
<path d="M0.353027 10.9196C0.353027 11.4348 0.77072 11.8525 1.28597 11.8525H14.3472C14.8624 11.8525 15.2801 11.4348 15.2801 10.9196C15.2801 10.4043 14.8624 9.98665 14.3472 9.98665H1.28597C0.77072 9.98665 0.353027 10.4043 0.353027 10.9196ZM0.353027 6.25488C0.353027 6.77013 0.77072 7.18783 1.28597 7.18783H14.3472C14.8624 7.18783 15.2801 6.77013 15.2801 6.25488C15.2801 5.73963 14.8624 5.32194 14.3472 5.32194H1.28597C0.77072 5.32194 0.353027 5.73963 0.353027 6.25488ZM1.28597 0.657227C0.77072 0.657227 0.353027 1.07492 0.353027 1.59017C0.353027 2.10542 0.77072 2.52311 1.28597 2.52311H14.3472C14.8624 2.52311 15.2801 2.10542 15.2801 1.59017C15.2801 1.07492 14.8624 0.657227 14.3472 0.657227H1.28597Z" fill="#7A7A7A"/>
</svg>
