<svg width="80" height="80" viewBox="0 0 80 80" fill="none" xmlns="http://www.w3.org/2000/svg">
<path d="M77 26.375L71.75 1.56248C71.6875 1.24998 71.5 1.06248 71.3125 0.999983C71.1875 0.874983 70.9375 0.812483 70.5625 0.874983C70.4375 0.874983 70.375 0.937483 70.25 0.999983L48.625 13.9375C48.1875 14.1875 48 14.8125 48.3125 15.25C48.4375 15.4375 48.5625 15.5625 48.75 15.625L54.6875 18.1875L53.5 21.25C53.125 22.3125 44.0625 45.375 7.9375 45.375C6.5625 45.375 5.0625 45.3125 3.625 45.25H3.4375C3.3125 45.25 3.25 45.3125 3.125 45.375C3.0625 45.4375 3 45.5625 3 45.6875C3 45.875 3.125 46.0625 3.3125 46.125L3.4375 46.1875C11.25 48.8125 19.375 50.1875 27.625 50.3125C57.4375 50.3125 68.125 28.125 68.25 27.875L69.6875 24.8125L75.75 27.4375C76 27.5625 76.3125 27.5 76.4375 27.4375C76.625 27.375 76.8125 27.25 76.9375 26.9375C77.0625 26.75 77.0625 26.5625 77 26.375ZM7.25 79.1875H22.8125V56.625C17.5625 56.25 12.375 55.4375 7.25 54.125V79.1875ZM57.1875 48.6875V79.1875H72.75V33.25H72.6875C70.4375 36.8125 65.5 43.375 57.1875 48.6875ZM32.1875 79.1875H47.75V53.375C43.25 55.0625 38.125 56.25 32.1875 56.6875V79.1875Z" fill="#A7A7A7"/>
</svg>
