<svg width="25" height="24" viewBox="0 0 25 24" fill="none" xmlns="http://www.w3.org/2000/svg">
<path d="M12.8749 6.87501H12.7499V12C12.7494 12.0987 12.7683 12.1966 12.8056 12.2879C12.8429 12.3793 12.8979 12.4624 12.9674 12.5325M12.8749 6.87501V12V12.0007C12.8745 12.083 12.8902 12.1645 12.9213 12.2407C12.9524 12.3167 12.9981 12.3859 13.056 12.4443L13.0558 12.4441L12.9674 12.5325M12.8749 6.87501H14.1249M12.8749 6.87501V6.75001L14.1249 6.87501M12.9674 12.5325L13.0562 12.4445M12.9674 12.5325L15.1291 14.6941L15.2174 14.6057M13.0562 12.4445L14.2499 11.6925L16.1939 13.6293L16.1055 13.7177M13.0562 12.4445L15.2174 14.6057M13.0562 12.4445L14.1249 6.87501M15.2174 14.6057L15.3058 14.6941L16.1941 13.8059L16.1055 13.7177M15.2174 14.6057L16.1055 13.7177M16.1055 13.7177L14.1617 11.7811L14.1249 11.7444V11.6925V6.87501M7.02602 10.3382L4.8806 11.7685L4.88006 11.7689C4.76959 11.8433 4.63819 11.8806 4.50506 11.8751L4.50507 11.875L4.49975 11.875C4.39738 11.8752 4.29653 11.8502 4.20608 11.8022C4.11574 11.7543 4.03853 11.685 3.98122 11.6003C3.98115 11.6002 3.98108 11.6001 3.981 11.6L2.5504 9.4541L3.58911 8.75329L4.02908 9.4003L4.17873 9.62038L4.25254 9.36468C4.89491 7.13923 6.31829 5.22008 8.26147 3.9594C10.2047 2.69872 12.5373 2.18109 14.8313 2.50148C17.1254 2.82187 19.2269 3.9588 20.7504 5.70363C22.2738 7.44846 23.1169 9.68416 23.1249 12.0004C23.125 14.0268 22.4854 16.0015 21.2975 17.6431C20.1094 19.2849 18.4335 20.5097 16.5085 21.1432C14.5836 21.7766 12.5078 21.7864 10.577 21.1709C8.68585 20.5682 7.02833 19.3958 5.83034 17.8158L6.83679 17.0719C7.95099 18.5387 9.51865 19.5983 11.2977 20.0846C13.1171 20.5819 15.0511 20.4505 16.7865 19.7117C18.5219 18.9729 19.9571 17.6699 20.8597 16.0137C21.7623 14.3576 22.0794 12.4452 21.7597 10.5864C21.44 8.72757 20.5022 7.03108 19.0982 5.77164C17.6942 4.5122 15.9061 3.76357 14.0236 3.64698C12.1411 3.53039 10.2743 4.05266 8.7256 5.12923C7.17689 6.20579 6.03693 7.7736 5.49031 9.57878L5.39112 9.90633L5.67807 9.71982L6.32504 9.29928L7.02602 10.3382Z" fill="#A7A7A7" stroke="#2E353F" stroke-width="0.25"/>
</svg>
