<svg width="130" height="130" viewBox="0 0 130 130" fill="none" xmlns="http://www.w3.org/2000/svg">
<path d="M102.917 16.25H27.0833C21.125 16.25 16.25 21.125 16.25 27.0833V102.917C16.25 108.875 21.125 113.75 27.0833 113.75H102.917C108.875 113.75 113.75 108.875 113.75 102.917V27.0833C113.75 21.125 108.875 16.25 102.917 16.25ZM102.917 27.0833V75.8333H83.6333C81.6833 75.8333 79.95 76.8625 78.975 78.5417C76.1583 83.4167 71.0125 86.6667 65 86.6667C58.9875 86.6667 53.8417 83.4167 51.025 78.5417C50.5524 77.723 49.8737 77.0423 49.0565 76.5672C48.2393 76.092 47.312 75.839 46.3667 75.8333H27.0833V27.0833H102.917Z" fill="#E9E9E9"/>
</svg>
