<svg width="30" height="30" viewBox="0 0 30 30" fill="none" xmlns="http://www.w3.org/2000/svg">
<g clip-path="url(#clip0_0_152)">
<rect width="30" height="30" rx="7" fill="#20242A"/>
<path d="M5 20.75C5 21.4404 5.55964 22 6.25 22H23.75C24.4404 22 25 21.4404 25 20.75C25 20.0596 24.4404 19.5 23.75 19.5H6.25C5.55964 19.5 5 20.0596 5 20.75ZM5 14.5C5 15.1904 5.55964 15.75 6.25 15.75H23.75C24.4404 15.75 25 15.1904 25 14.5C25 13.8096 24.4404 13.25 23.75 13.25H6.25C5.55964 13.25 5 13.8096 5 14.5ZM6.25 7C5.55964 7 5 7.55964 5 8.25C5 8.94036 5.55964 9.5 6.25 9.5H23.75C24.4404 9.5 25 8.94036 25 8.25C25 7.55964 24.4404 7 23.75 7H6.25Z" fill="#3787FF"/>
</g>
<defs>
<clipPath id="clip0_0_152">
<rect width="30" height="30" rx="7" fill="white"/>
</clipPath>
</defs>
</svg>
