<svg width="31" height="31" viewBox="0 0 31 31" fill="none" xmlns="http://www.w3.org/2000/svg">
<g clip-path="url(#clip0_43_724)">
<rect x="0.0119629" y="0.128174" width="30" height="30" rx="7" fill="#20242A"/>
<path d="M5.01196 20.8782C5.01196 21.5685 5.57161 22.1282 6.26196 22.1282H23.762C24.4523 22.1282 25.012 21.5685 25.012 20.8782C25.012 20.1878 24.4523 19.6282 23.762 19.6282H6.26196C5.57161 19.6282 5.01196 20.1878 5.01196 20.8782ZM5.01196 14.6282C5.01196 15.3185 5.57161 15.8782 6.26196 15.8782H23.762C24.4523 15.8782 25.012 15.3185 25.012 14.6282C25.012 13.9378 24.4523 13.3782 23.762 13.3782H6.26196C5.57161 13.3782 5.01196 13.9378 5.01196 14.6282ZM6.26196 7.12817C5.57161 7.12817 5.01196 7.68782 5.01196 8.37817C5.01196 9.06853 5.57161 9.62817 6.26196 9.62817H23.762C24.4523 9.62817 25.012 9.06853 25.012 8.37817C25.012 7.68782 24.4523 7.12817 23.762 7.12817H6.26196Z" fill="#A7A7A7"/>
</g>
<defs>
<clipPath id="clip0_43_724">
<rect x="0.0119629" y="0.128174" width="30" height="30" rx="7" fill="white"/>
</clipPath>
</defs>
</svg>
