<svg width="25" height="24" viewBox="0 0 25 24" fill="none" xmlns="http://www.w3.org/2000/svg">
<path d="M20.7537 14.1286C20.5381 15.0192 20.2077 15.8207 19.7295 16.5989C19.6475 16.7325 19.6756 16.9153 19.7834 17.0254C20.0881 17.3301 20.3952 17.6348 20.6975 17.9395C20.7139 17.9559 20.7303 17.9746 20.7467 17.9911C20.7819 18.0262 20.8358 18.1246 20.8522 18.1786C20.8592 18.1996 20.8639 18.2207 20.8686 18.2418C20.8944 18.3379 20.8686 18.202 20.8733 18.2606C20.878 18.3098 20.878 18.3567 20.8756 18.4059C20.8709 18.4762 20.8733 18.4223 20.8756 18.4082C20.8686 18.441 20.8616 18.4715 20.8522 18.502C20.8452 18.5231 20.8381 18.5442 20.8311 18.5629C20.8569 18.4996 20.8147 18.5911 20.81 18.5981C20.7983 18.6168 20.7866 18.6356 20.7748 18.6543C20.7233 18.734 20.8147 18.6215 20.7444 18.6895C20.735 18.6989 20.728 18.7082 20.7186 18.7153C20.7069 18.727 20.6975 18.7364 20.6858 18.7481C20.6295 18.8043 20.5733 18.8606 20.5194 18.9145C20.135 19.2989 19.7483 19.6856 19.3639 20.07C19.2608 20.1731 19.16 20.2786 19.0545 20.3793C19.0452 20.3887 19.0334 20.3981 19.0264 20.4051C18.9537 20.4778 19.0522 20.3911 19.0053 20.4239C18.9819 20.4403 18.9584 20.4543 18.935 20.4684C18.9162 20.4801 18.8952 20.4895 18.8764 20.4989C18.928 20.4731 18.8811 20.4965 18.8694 20.5012C18.8389 20.5106 18.8061 20.5176 18.7756 20.527C18.7053 20.5481 18.8202 20.5317 18.7405 20.534C18.6983 20.5364 18.6537 20.5364 18.6116 20.534C18.5178 20.5317 18.6678 20.5551 18.5764 20.527C18.5553 20.52 18.5342 20.5176 18.5131 20.5106C18.492 20.5035 18.4709 20.4965 18.4522 20.4895C18.5202 20.5153 18.4241 20.4731 18.417 20.4684C18.3983 20.4567 18.3795 20.445 18.3608 20.4332C18.2858 20.384 18.3889 20.4684 18.3256 20.4028C18.0069 20.0793 17.6811 19.7606 17.36 19.4395C17.2522 19.3317 17.067 19.3036 16.9334 19.3856C16.16 19.8684 15.3584 20.1989 14.4678 20.4145C14.3178 20.4496 14.21 20.602 14.21 20.7543C14.21 21.1879 14.2123 21.6239 14.21 22.0575C14.21 22.0879 14.21 22.1161 14.2077 22.1465C14.2053 22.2356 14.2264 22.1184 14.2053 22.1629C14.1959 22.184 14.1936 22.2145 14.1866 22.2379C14.1819 22.2567 14.1748 22.2778 14.1678 22.2965C14.1912 22.2262 14.1608 22.3082 14.1537 22.3246C14.142 22.3481 14.128 22.3668 14.1139 22.3903C14.1045 22.4067 14.06 22.4559 14.1069 22.4043C14.0741 22.4418 14.0389 22.477 14.0014 22.5098C14.053 22.4653 13.9709 22.5286 13.9498 22.5426C13.9241 22.559 13.8959 22.5731 13.8702 22.5848C13.9264 22.559 13.8608 22.5848 13.8397 22.5918C13.8209 22.5965 13.7998 22.6012 13.7787 22.6082C13.6897 22.634 13.8186 22.6106 13.7623 22.6129C13.7342 22.6129 13.7084 22.6153 13.6803 22.6176C13.6662 22.6176 13.6498 22.6176 13.6358 22.6176C13.5608 22.6176 13.4858 22.6176 13.4108 22.6176C12.86 22.6176 12.3116 22.6176 11.7608 22.6176C11.6155 22.6176 11.4678 22.62 11.3225 22.6176C11.3014 22.6176 11.278 22.6153 11.2569 22.6153C11.1702 22.6129 11.285 22.634 11.2405 22.6129C11.2194 22.6035 11.1889 22.6012 11.1655 22.5942C11.1467 22.5895 11.1256 22.5825 11.1069 22.5754C11.1795 22.6012 11.0905 22.566 11.0787 22.5614C11.06 22.552 11.0436 22.5426 11.0272 22.5309C11.0178 22.5239 10.9452 22.4653 11.0014 22.5145C10.9639 22.4817 10.9287 22.4465 10.8959 22.409C10.9428 22.4606 10.8678 22.3645 10.8561 22.3434C10.8444 22.3223 10.8327 22.2989 10.8209 22.2754C10.8491 22.3364 10.8256 22.2871 10.8233 22.2731C10.8162 22.2473 10.8092 22.2239 10.8022 22.1981C10.7975 22.184 10.7952 22.1676 10.7928 22.1512C10.7975 22.1934 10.7975 22.1934 10.7928 22.1512C10.7811 21.6871 10.7905 21.2231 10.7905 20.7567C10.7905 20.6067 10.6827 20.4543 10.5327 20.4168C9.64203 20.2012 8.84046 19.8707 8.06234 19.3926C7.92875 19.3106 7.74593 19.3387 7.63578 19.4465C7.33109 19.7512 7.0264 20.0582 6.72171 20.3606C6.70531 20.377 6.68656 20.3934 6.67015 20.4098C6.635 20.445 6.53656 20.4989 6.48265 20.5153C6.46156 20.5223 6.44046 20.527 6.41937 20.5317C6.32328 20.5575 6.45921 20.5317 6.40062 20.5364C6.3514 20.5411 6.30453 20.541 6.25531 20.5387C6.185 20.534 6.2389 20.5364 6.25296 20.5387C6.22015 20.5317 6.18968 20.5246 6.15921 20.5153C6.13812 20.5082 6.11703 20.5012 6.09828 20.4942C6.16156 20.52 6.07015 20.4778 6.06312 20.4731C6.04437 20.4614 6.02562 20.4496 6.00687 20.4379C5.92718 20.3864 6.03968 20.4778 5.97171 20.4075C5.96234 20.3981 5.95296 20.3911 5.94593 20.3817C5.93421 20.37 5.92484 20.3606 5.91312 20.3489C5.85687 20.2926 5.80062 20.2364 5.74671 20.1825C5.36234 19.7981 4.97562 19.4114 4.59125 19.027C4.48812 18.9239 4.38265 18.8231 4.28187 18.7176C4.2725 18.7082 4.26312 18.6965 4.25609 18.6895C4.18343 18.6168 4.27015 18.7153 4.23734 18.6684C4.22093 18.645 4.20687 18.6215 4.19281 18.5981C4.18109 18.5793 4.17171 18.5582 4.16234 18.5395C4.18812 18.5911 4.16468 18.5442 4.16 18.5325C4.15062 18.502 4.14359 18.4692 4.13421 18.4387C4.11312 18.3684 4.12953 18.4832 4.12718 18.4036C4.12484 18.3614 4.12484 18.3168 4.12718 18.2746C4.12953 18.1809 4.10609 18.3309 4.13421 18.2395C4.14125 18.2184 4.14359 18.1973 4.15062 18.1762C4.15765 18.1551 4.16468 18.134 4.17171 18.1153C4.14593 18.1832 4.18812 18.0871 4.19281 18.0801C4.20453 18.0614 4.21625 18.0426 4.22796 18.0239C4.27718 17.9489 4.19281 18.052 4.25843 17.9887C4.58187 17.67 4.90062 17.3442 5.22171 17.0231C5.32953 16.9153 5.35765 16.7301 5.27562 16.5965C4.79046 15.8207 4.46 15.0192 4.24437 14.1286C4.20921 13.9786 4.05687 13.8707 3.90453 13.8707C3.47093 13.8707 3.035 13.8731 2.6014 13.8707C2.57093 13.8707 2.54281 13.8707 2.51234 13.8684C2.42328 13.8661 2.54046 13.8871 2.49593 13.8661C2.47484 13.8567 2.44437 13.8543 2.42093 13.8473C2.40218 13.8426 2.38109 13.8356 2.36234 13.8286C2.43265 13.852 2.35062 13.8215 2.33421 13.8145C2.31078 13.8028 2.29203 13.7887 2.26859 13.7746C2.25218 13.7653 2.20296 13.7207 2.25453 13.7676C2.21703 13.7348 2.18187 13.6996 2.14906 13.6621C2.19359 13.7137 2.13031 13.6317 2.11625 13.6106C2.09984 13.5848 2.08578 13.5567 2.07406 13.5309C2.09984 13.5871 2.07406 13.5215 2.06703 13.5004C2.06234 13.4817 2.05765 13.4606 2.05062 13.4395C2.02484 13.3504 2.04828 13.4793 2.04593 13.4231C2.04593 13.395 2.04359 13.3692 2.04125 13.3411C2.04125 13.327 2.04125 13.3106 2.04125 13.2965C2.04125 13.2215 2.04125 13.1465 2.04125 13.0715C2.04125 12.5207 2.04125 11.9723 2.04125 11.4215C2.04125 11.2762 2.0389 11.1286 2.04125 10.9832C2.04125 10.9621 2.04359 10.9387 2.04359 10.9176C2.04593 10.8309 2.02484 10.9457 2.04593 10.9012C2.05531 10.8801 2.05765 10.8496 2.06468 10.8262C2.06937 10.8075 2.0764 10.7864 2.08343 10.7676C2.05765 10.8403 2.09281 10.7512 2.0975 10.7395C2.10687 10.7207 2.11625 10.7043 2.12796 10.6879C2.135 10.6786 2.19359 10.6059 2.14437 10.6621C2.17718 10.6246 2.21234 10.5895 2.24984 10.5567C2.19828 10.6036 2.29437 10.5286 2.31546 10.5168C2.33656 10.5051 2.36 10.4934 2.38343 10.4817C2.3225 10.5098 2.37171 10.4864 2.38578 10.484C2.41156 10.477 2.435 10.47 2.46078 10.4629C2.47484 10.4582 2.49125 10.4559 2.50765 10.4536C2.46546 10.4582 2.46546 10.4582 2.50765 10.4536C2.97171 10.4418 3.43578 10.4512 3.90218 10.4512C4.05218 10.4512 4.20453 10.3434 4.24203 10.1934C4.45765 9.30277 4.78812 8.50121 5.26625 7.72308C5.34828 7.58949 5.32015 7.40668 5.21234 7.29652C4.90765 6.99183 4.60062 6.68714 4.29828 6.38246C4.28187 6.36605 4.26546 6.3473 4.24906 6.33089C4.2139 6.29574 4.16 6.1973 4.14359 6.14339C4.13656 6.1223 4.13187 6.10121 4.12718 6.08011C4.1014 5.98402 4.12718 6.11996 4.1225 6.06136C4.11781 6.01214 4.11781 5.96527 4.12015 5.91605C4.12484 5.84574 4.1225 5.89964 4.12015 5.91371C4.12718 5.88089 4.13421 5.85043 4.14359 5.81996C4.15062 5.79886 4.15765 5.77777 4.16468 5.75902C4.1389 5.8223 4.18109 5.73089 4.18578 5.72386C4.1975 5.70511 4.20921 5.68636 4.22093 5.66761C4.2725 5.58792 4.18109 5.70043 4.2514 5.63246C4.26078 5.62308 4.26781 5.61371 4.27718 5.60668C4.2889 5.59496 4.29828 5.58558 4.31 5.57386C4.36625 5.51761 4.4225 5.46136 4.4764 5.40746C4.86078 5.02308 5.2475 4.63636 5.63187 4.25199C5.735 4.14886 5.83578 4.04339 5.94125 3.94261C5.95062 3.93324 5.96234 3.92386 5.96937 3.91683C6.04203 3.84418 5.94359 3.93089 5.99046 3.89808C6.0139 3.88168 6.03734 3.86761 6.06078 3.85355C6.07953 3.84183 6.10062 3.83246 6.11937 3.82308C6.06781 3.84886 6.11468 3.82543 6.1264 3.82074C6.15687 3.81136 6.18968 3.80433 6.22015 3.79496C6.29046 3.77386 6.17562 3.79027 6.25531 3.78793C6.2975 3.78558 6.34203 3.78558 6.38421 3.78793C6.47796 3.79027 6.32796 3.76683 6.41937 3.79496C6.44046 3.80199 6.46156 3.80433 6.48265 3.81136C6.50375 3.81839 6.52484 3.82543 6.54359 3.83246C6.47562 3.80668 6.57171 3.84886 6.57875 3.85355C6.5975 3.86527 6.61625 3.87699 6.635 3.88871C6.71 3.93793 6.60687 3.85355 6.67015 3.91918C6.9889 4.24261 7.31468 4.56136 7.63578 4.88246C7.74359 4.99027 7.92875 5.01839 8.06234 4.93636C8.83812 4.45121 9.63968 4.12074 10.5303 3.90511C10.6803 3.86996 10.7881 3.71761 10.7881 3.56527C10.7881 3.13168 10.7858 2.69574 10.7881 2.26214C10.7881 2.23168 10.7881 2.20355 10.7905 2.17308C10.7928 2.08402 10.7717 2.20121 10.7928 2.15668C10.8022 2.13558 10.8045 2.10511 10.8116 2.08168C10.8162 2.06293 10.8233 2.04183 10.8303 2.02308C10.8069 2.09339 10.8373 2.01136 10.8444 1.99496C10.8561 1.97152 10.8702 1.95277 10.8842 1.92933C10.8936 1.91293 10.9381 1.86371 10.8912 1.91527C10.9241 1.87777 10.9592 1.84261 10.9967 1.8098C10.9452 1.85433 11.0272 1.79105 11.0483 1.77699C11.0741 1.76058 11.1022 1.74652 11.128 1.7348C11.0717 1.76058 11.1373 1.7348 11.1584 1.72777C11.1772 1.72308 11.1983 1.71839 11.2194 1.71136C11.3084 1.68558 11.1795 1.70902 11.2358 1.70668C11.2639 1.70668 11.2897 1.70433 11.3178 1.70199C11.3319 1.70199 11.3483 1.70199 11.3623 1.70199C11.4373 1.70199 11.5123 1.70199 11.5873 1.70199C12.1381 1.70199 12.6866 1.70199 13.2373 1.70199C13.3827 1.70199 13.5303 1.69964 13.6756 1.70199C13.6967 1.70199 13.7202 1.70433 13.7412 1.70433C13.828 1.70668 13.7131 1.68558 13.7577 1.70668C13.7787 1.71605 13.8092 1.71839 13.8327 1.72543C13.8514 1.73011 13.8725 1.73714 13.8912 1.74418C13.8186 1.71839 13.9077 1.75355 13.9194 1.75824C13.9381 1.76761 13.9545 1.77699 13.9709 1.78871C13.9803 1.79574 14.053 1.85433 13.9967 1.80511C14.0342 1.83793 14.0694 1.87308 14.1022 1.91058C14.0553 1.85902 14.1303 1.95511 14.142 1.97621C14.1537 1.9973 14.1655 2.02074 14.1772 2.04418C14.1491 1.98324 14.1725 2.03246 14.1748 2.04652C14.1819 2.0723 14.1889 2.09574 14.1959 2.12152C14.2006 2.13558 14.203 2.15199 14.2053 2.16839C14.2006 2.12621 14.2006 2.12621 14.2053 2.16839C14.217 2.63246 14.2077 3.09652 14.2077 3.56293C14.2077 3.71293 14.3155 3.86527 14.4655 3.90277C15.3561 4.11839 16.1577 4.44886 16.9358 4.92699C17.0694 5.00902 17.2522 4.98089 17.3623 4.87308C17.667 4.56839 17.9717 4.26136 18.2764 3.95902C18.2928 3.94261 18.3116 3.92621 18.328 3.9098C18.3631 3.87464 18.4616 3.82074 18.5155 3.80433C18.5366 3.7973 18.5577 3.79261 18.5787 3.78793C18.6748 3.76214 18.5389 3.78793 18.5975 3.78324C18.6467 3.77855 18.6936 3.77855 18.7428 3.78089C18.8131 3.78558 18.7592 3.78324 18.7452 3.78089C18.778 3.78793 18.8084 3.79496 18.8389 3.80433C18.86 3.81136 18.8811 3.81839 18.8998 3.82543C18.8366 3.79964 18.928 3.84183 18.935 3.84652C18.9537 3.85824 18.9725 3.86996 18.9912 3.88168C19.0709 3.93324 18.9584 3.84183 19.0264 3.91214C19.0358 3.92152 19.0452 3.92855 19.0522 3.93793C19.0639 3.94964 19.0733 3.95902 19.085 3.97074C19.1412 4.02699 19.1975 4.08324 19.2514 4.13714C19.6358 4.52152 20.0225 4.90824 20.4069 5.29261C20.51 5.39574 20.6155 5.49652 20.7162 5.60199C20.7256 5.61136 20.735 5.62308 20.742 5.63011C20.8147 5.70277 20.728 5.60433 20.7608 5.65121C20.7772 5.67464 20.7912 5.69808 20.8053 5.72152C20.817 5.74027 20.8264 5.76136 20.8358 5.78011C20.81 5.72855 20.8334 5.77543 20.8381 5.78714C20.8475 5.81761 20.8545 5.85043 20.8639 5.88089C20.885 5.95121 20.8686 5.83636 20.8709 5.91605C20.8733 5.95824 20.8733 6.00277 20.8709 6.04496C20.8686 6.13871 20.892 5.98871 20.8639 6.08011C20.8569 6.10121 20.8545 6.1223 20.8475 6.14339C20.8405 6.16449 20.8334 6.18558 20.8264 6.20433C20.8522 6.13636 20.81 6.23246 20.8053 6.23949C20.7936 6.25824 20.7819 6.27699 20.7702 6.29574C20.7209 6.37074 20.8053 6.26761 20.7397 6.33089C20.4162 6.64964 20.0975 6.97543 19.7764 7.29652C19.6686 7.40433 19.6405 7.58949 19.7225 7.72308C20.2077 8.49886 20.5381 9.30043 20.7537 10.1911C20.7889 10.3411 20.9412 10.4489 21.0936 10.4489C21.5272 10.4489 21.9631 10.4465 22.3967 10.4489C22.4272 10.4489 22.4553 10.4489 22.4858 10.4512C22.5748 10.4536 22.4577 10.4325 22.5022 10.4536C22.5233 10.4629 22.5537 10.4653 22.5772 10.4723C22.5959 10.477 22.617 10.484 22.6358 10.4911C22.5655 10.4676 22.6475 10.4981 22.6639 10.5051C22.6873 10.5168 22.7061 10.5309 22.7295 10.545C22.7459 10.5543 22.7952 10.5989 22.7436 10.552C22.7811 10.5848 22.8162 10.62 22.8491 10.6575C22.8045 10.6059 22.8678 10.6879 22.8819 10.709C22.8983 10.7348 22.9123 10.7629 22.9241 10.7887C22.8983 10.7325 22.9241 10.7981 22.9311 10.8192C22.9358 10.8379 22.9405 10.859 22.9475 10.8801C22.9733 10.9692 22.9498 10.8403 22.9522 10.8965C22.9522 10.9246 22.9545 10.9504 22.9569 10.9786C22.9569 10.9926 22.9569 11.009 22.9569 11.0231C22.9569 11.0981 22.9569 11.1731 22.9569 11.2481C22.9569 11.7989 22.9569 12.3473 22.9569 12.8981C22.9569 13.0434 22.9592 13.1911 22.9569 13.3364C22.9569 13.3575 22.9545 13.3809 22.9545 13.402C22.9522 13.4887 22.9733 13.3739 22.9522 13.4184C22.9428 13.4395 22.9405 13.47 22.9334 13.4934C22.9287 13.5121 22.9217 13.5332 22.9147 13.552C22.9405 13.4793 22.9053 13.5684 22.9006 13.5801C22.8912 13.5989 22.8819 13.6153 22.8702 13.6317C22.8631 13.6411 22.8045 13.7137 22.8537 13.6575C22.8209 13.695 22.7858 13.7301 22.7483 13.7629C22.7998 13.7161 22.7037 13.791 22.6827 13.8028C22.6616 13.8145 22.6381 13.8262 22.6147 13.8379C22.6756 13.8098 22.6264 13.8332 22.6123 13.8356C22.5866 13.8426 22.5631 13.8496 22.5373 13.8567C22.5233 13.8614 22.5069 13.8637 22.4905 13.8661C22.5327 13.8614 22.5327 13.8614 22.4905 13.8661C22.0264 13.8778 21.5623 13.8684 21.0959 13.8684C20.9131 13.8684 20.735 14.0301 20.7444 14.22C20.7537 14.4098 20.8991 14.5715 21.0959 14.5715C21.5366 14.5715 21.9795 14.5786 22.4202 14.5715C22.9405 14.5645 23.3905 14.2504 23.5803 13.7676C23.6623 13.5567 23.66 13.3364 23.66 13.1137C23.66 12.5325 23.66 11.9536 23.66 11.3723C23.66 11.22 23.6694 11.0653 23.6576 10.9129C23.6202 10.3809 23.2522 9.90511 22.7248 9.78089C22.4459 9.71527 22.1389 9.74339 21.8553 9.74339C21.6022 9.74339 21.3514 9.74339 21.0983 9.74339C21.2108 9.83011 21.3233 9.91449 21.4381 10.0012C21.2131 9.07308 20.8428 8.17777 20.3436 7.36214C20.3248 7.50511 20.3061 7.64574 20.2897 7.78871C20.6014 7.47699 20.9178 7.16996 21.2248 6.85355C21.5905 6.47621 21.6889 5.93011 21.4733 5.45199C21.3795 5.24339 21.2178 5.09339 21.0608 4.93402C20.6553 4.52855 20.2522 4.12543 19.8467 3.71996C19.7436 3.61683 19.6428 3.50902 19.535 3.41058C19.1295 3.03558 18.485 2.95589 18.0186 3.2723C17.7842 3.42933 17.592 3.65902 17.3952 3.85589C17.2217 4.02933 17.0483 4.20277 16.8748 4.37621C17.0178 4.35746 17.1584 4.33871 17.3014 4.3223C16.4858 3.82308 15.5905 3.45277 14.6623 3.22777C14.7491 3.34027 14.8334 3.45277 14.9202 3.56761C14.9202 3.12699 14.9272 2.68402 14.9202 2.24339C14.9131 1.72308 14.5991 1.27308 14.1162 1.08324C13.9053 1.00121 13.685 1.00355 13.4623 1.00355C12.8811 1.00355 12.3022 1.00355 11.7209 1.00355C11.5686 1.00355 11.4139 0.994175 11.2616 1.00589C10.7295 1.04339 10.2537 1.41136 10.1295 1.93871C10.0639 2.21761 10.092 2.52464 10.092 2.80824C10.092 3.06136 10.092 3.31214 10.092 3.56527C10.1787 3.45277 10.2631 3.34027 10.3498 3.22543C9.42171 3.45043 8.5264 3.82074 7.71078 4.31996C7.85375 4.33871 7.99437 4.35746 8.13734 4.37386C7.82562 4.06214 7.51859 3.74574 7.20218 3.43871C6.82484 3.07308 6.27875 2.97464 5.80062 3.19027C5.59203 3.28402 5.44203 3.44574 5.28265 3.60277C4.87718 4.00824 4.47406 4.41136 4.06859 4.81683C3.96546 4.91996 3.85765 5.02074 3.75921 5.12855C3.38421 5.53402 3.30453 6.17855 3.62093 6.64496C3.77796 6.87933 4.00765 7.07152 4.20453 7.26839C4.37796 7.44183 4.5514 7.61527 4.72484 7.78871C4.70609 7.64574 4.68734 7.50511 4.67093 7.36214C4.17171 8.17777 3.8014 9.07308 3.5764 10.0012C3.6889 9.91449 3.8014 9.83011 3.91625 9.74339C3.47562 9.74339 3.03265 9.73636 2.59203 9.74339C2.07171 9.75043 1.62171 10.0645 1.43187 10.5473C1.34984 10.7582 1.35218 10.9786 1.35218 11.2012C1.35218 11.7825 1.35218 12.3614 1.35218 12.9426C1.35218 13.095 1.34281 13.2496 1.35453 13.402C1.39203 13.934 1.76 14.4098 2.28734 14.534C2.56625 14.5996 2.87328 14.5715 3.15687 14.5715C3.41 14.5715 3.66078 14.5715 3.9139 14.5715C3.8014 14.4848 3.6889 14.4004 3.57406 14.3137C3.79906 15.2418 4.16937 16.1371 4.66859 16.9528C4.68734 16.8098 4.70609 16.6692 4.7225 16.5262C4.41078 16.8379 4.09437 17.145 3.78734 17.4614C3.42171 17.8387 3.32328 18.3848 3.5389 18.8629C3.63265 19.0715 3.79437 19.2215 3.9514 19.3809C4.35687 19.7864 4.76 20.1895 5.16546 20.595C5.26859 20.6981 5.36937 20.8059 5.47718 20.9043C5.88265 21.2793 6.52718 21.359 6.99359 21.0426C7.22796 20.8856 7.42015 20.6559 7.61703 20.459C7.79046 20.2856 7.9639 20.1121 8.13734 19.9387C7.99437 19.9575 7.85375 19.9762 7.71078 19.9926C8.5264 20.4918 9.42171 20.8621 10.3498 21.0871C10.2631 20.9746 10.1787 20.8621 10.092 20.7473C10.092 21.1879 10.085 21.6309 10.092 22.0715C10.0991 22.5918 10.4131 23.0418 10.8959 23.2317C11.1069 23.3137 11.3272 23.3114 11.5498 23.3114C12.1311 23.3114 12.71 23.3114 13.2912 23.3114C13.4436 23.3114 13.5983 23.3207 13.7506 23.309C14.2827 23.2715 14.7584 22.9036 14.8827 22.3762C14.9483 22.0973 14.9202 21.7903 14.9202 21.5067C14.9202 21.2535 14.9202 21.0028 14.9202 20.7496C14.8334 20.8621 14.7491 20.9746 14.6623 21.0895C15.5905 20.8645 16.4858 20.4942 17.3014 19.995C17.1584 19.9762 17.0178 19.9575 16.8748 19.9411C17.1866 20.2528 17.4936 20.5692 17.81 20.8762C18.1873 21.2418 18.7334 21.3403 19.2116 21.1246C19.4202 21.0309 19.5702 20.8692 19.7295 20.7121C20.135 20.3067 20.5381 19.9035 20.9436 19.4981C21.0467 19.395 21.1545 19.2942 21.253 19.1864C21.628 18.7809 21.7077 18.1364 21.3912 17.67C21.2342 17.4356 21.0045 17.2434 20.8077 17.0465C20.6342 16.8731 20.4608 16.6996 20.2873 16.5262C20.3061 16.6692 20.3248 16.8098 20.3412 16.9528C20.8405 16.1371 21.2108 15.2418 21.4358 14.3137C21.478 14.1356 21.3795 13.9246 21.1897 13.8801C21.0045 13.8426 20.8006 13.9387 20.7537 14.1286Z" fill="#A7A7A7"/>
<path d="M16.6455 12C16.6455 12.1101 16.6408 12.218 16.6338 12.3281C16.6291 12.3773 16.6244 12.4242 16.6197 12.4734C16.6174 12.4922 16.608 12.5625 16.6174 12.4922C16.6127 12.525 16.608 12.5555 16.6033 12.5883C16.5682 12.7969 16.5189 13.0031 16.4533 13.2023C16.4252 13.2914 16.39 13.3781 16.3572 13.4672C16.3197 13.5609 16.376 13.4273 16.3502 13.4836C16.3408 13.507 16.3291 13.5305 16.3174 13.5539C16.2939 13.6055 16.2682 13.657 16.2424 13.7062C16.151 13.8844 16.0478 14.0555 15.9307 14.2195C15.9002 14.2617 15.8697 14.3015 15.8393 14.3437C15.8814 14.2875 15.8018 14.3883 15.79 14.4047C15.7221 14.4867 15.6494 14.5664 15.5744 14.6437C15.5111 14.7094 15.4432 14.7726 15.3752 14.8359C15.3377 14.8711 15.2978 14.9039 15.2603 14.9367C15.2439 14.9508 15.2299 14.9625 15.2135 14.9765C15.1971 14.9906 15.1807 15.0023 15.1666 15.014C15.1924 14.993 15.1971 14.9906 15.176 15.007C15.0166 15.1289 14.8478 15.2367 14.6744 15.3351C14.583 15.3844 14.4916 15.4312 14.3978 15.4734C14.3791 15.4828 14.3603 15.4898 14.3416 15.4992C14.2502 15.5414 14.3814 15.4828 14.3252 15.5062C14.2713 15.5273 14.2197 15.5484 14.1658 15.5672C13.9689 15.6375 13.765 15.6961 13.5588 15.7359C13.5166 15.7453 13.4744 15.7523 13.4322 15.7594C13.4018 15.764 13.3689 15.7687 13.3361 15.7734C13.3502 15.7711 13.4041 15.7664 13.3338 15.7734C13.226 15.7851 13.1182 15.7945 13.0103 15.7992C12.7924 15.8086 12.5744 15.7969 12.3564 15.7734C12.2533 15.7617 12.401 15.7805 12.3377 15.7711C12.3119 15.7664 12.2838 15.764 12.258 15.7594C12.2111 15.7523 12.1643 15.743 12.1174 15.7336C12.0096 15.7125 11.9018 15.6867 11.7939 15.6562C11.7025 15.6305 11.6135 15.6023 11.5244 15.5695C11.4752 15.5508 11.4283 15.532 11.3791 15.5133C11.3158 15.4875 11.365 15.5062 11.3768 15.5133C11.3439 15.4992 11.3111 15.4851 11.2783 15.4687C11.0955 15.3844 10.9197 15.2859 10.7533 15.1758C10.6666 15.1195 10.5846 15.0609 10.5025 14.9976C10.5564 15.0398 10.4721 14.9719 10.4533 14.9578C10.4064 14.918 10.3596 14.8781 10.315 14.8383C10.1674 14.7047 10.0291 14.5617 9.90253 14.407C9.89082 14.3906 9.80879 14.2898 9.85332 14.3461C9.82285 14.3062 9.79238 14.264 9.76191 14.2219C9.70332 14.1375 9.64707 14.0531 9.59316 13.964C9.53925 13.875 9.49004 13.7859 9.44316 13.6945C9.42207 13.6523 9.40097 13.6101 9.38222 13.568C9.3705 13.5445 9.36113 13.5211 9.34941 13.4976C9.30722 13.4039 9.37285 13.5633 9.33535 13.4672C9.258 13.2726 9.19238 13.0734 9.1455 12.8695C9.12441 12.7758 9.10566 12.682 9.08925 12.5883C9.08457 12.5625 9.07988 12.5344 9.07753 12.5086C9.06816 12.4476 9.08691 12.593 9.07519 12.4898C9.06816 12.4312 9.06347 12.3726 9.05878 12.3117C9.04238 12.0984 9.04238 11.8851 9.06113 11.6742C9.06582 11.6203 9.0705 11.5664 9.07753 11.5125C9.08457 11.4422 9.07988 11.4961 9.07753 11.5101C9.08222 11.4844 9.08457 11.4562 9.08925 11.4305C9.108 11.3203 9.1291 11.2101 9.15488 11.1023C9.2041 10.9031 9.26738 10.7109 9.34472 10.5211C9.36816 10.4648 9.30957 10.5961 9.35175 10.5047C9.36113 10.4859 9.36816 10.4672 9.37753 10.4484C9.39863 10.4015 9.42207 10.3547 9.4455 10.3078C9.49238 10.2164 9.5416 10.125 9.5955 10.0383C9.64941 9.95155 9.70566 9.86483 9.76425 9.78045C9.79003 9.74295 9.81816 9.70545 9.84628 9.66795C9.88144 9.62108 9.79472 9.73123 9.858 9.65389C9.87675 9.63045 9.8955 9.60702 9.9166 9.58358C10.0478 9.42655 10.1908 9.28123 10.3432 9.1453C10.3783 9.11483 10.4135 9.08436 10.4486 9.05623C10.465 9.04452 10.5635 8.96248 10.5096 9.00702C10.5916 8.94373 10.6736 8.88514 10.7603 8.82889C10.9314 8.71639 11.1143 8.61561 11.2994 8.53123C11.3228 8.51952 11.3463 8.51014 11.3697 8.49842C11.426 8.47498 11.2924 8.52889 11.3861 8.49139C11.4307 8.47498 11.4728 8.45623 11.5174 8.43983C11.6205 8.40233 11.726 8.36952 11.8314 8.33905C11.9228 8.31327 12.0143 8.29217 12.108 8.27342C12.1596 8.2617 12.2135 8.25233 12.265 8.2453C12.2861 8.24295 12.3072 8.23827 12.3283 8.23592C12.3705 8.22889 12.3705 8.22889 12.3307 8.23592C12.3471 8.23358 12.3635 8.23123 12.3775 8.23123C12.5885 8.2078 12.8018 8.19842 13.015 8.2078C13.1228 8.21248 13.2307 8.22186 13.3385 8.23358C13.3525 8.23592 13.4088 8.24295 13.3408 8.23358C13.3666 8.23827 13.3947 8.24061 13.4205 8.2453C13.4791 8.25467 13.5353 8.26405 13.5939 8.27577C13.8002 8.31795 14.0018 8.37655 14.1986 8.4492C14.2385 8.46327 14.276 8.47967 14.3158 8.49373C14.4119 8.53123 14.2525 8.46327 14.3463 8.5078C14.365 8.51717 14.3838 8.5242 14.4025 8.53358C14.4963 8.57577 14.5877 8.62264 14.6791 8.67186C14.8596 8.7703 15.0307 8.8828 15.1924 9.00936C15.1385 8.96717 15.1924 9.00936 15.2064 9.02108C15.2252 9.03748 15.2463 9.05389 15.265 9.0703C15.3002 9.10077 15.3353 9.12889 15.3682 9.1617C15.4478 9.23436 15.5252 9.30702 15.6002 9.38436C15.6635 9.44998 15.7244 9.5203 15.783 9.59061C15.7994 9.60936 15.8158 9.63045 15.8322 9.6492C15.8439 9.66327 15.8861 9.71717 15.8439 9.66327C15.8791 9.7078 15.9119 9.75233 15.9447 9.7992C16.0596 9.96327 16.1627 10.1344 16.2541 10.3148C16.2775 10.3617 16.2986 10.4086 16.3221 10.4555C16.3314 10.4742 16.3385 10.493 16.3478 10.5117C16.39 10.6055 16.3244 10.4461 16.3619 10.5422C16.3994 10.6383 16.4369 10.7367 16.4674 10.8351C16.5307 11.032 16.5775 11.2312 16.6103 11.4351C16.615 11.4609 16.6197 11.489 16.6221 11.5148C16.6127 11.4469 16.6197 11.5031 16.6221 11.5172C16.6268 11.5711 16.6338 11.625 16.6385 11.6789C16.6408 11.782 16.6455 11.8898 16.6455 12C16.6455 12.1828 16.8072 12.3609 16.9971 12.3515C17.1869 12.3422 17.3486 12.1969 17.3486 12C17.3439 11.0765 17.0627 10.1531 16.5213 9.40311C15.9846 8.65545 15.2463 8.09061 14.3814 7.76952C12.6377 7.12264 10.5799 7.67811 9.39629 9.11248C8.79394 9.84139 8.433 10.7273 8.358 11.6719C8.28769 12.5883 8.51269 13.5281 8.98613 14.3156C9.45019 15.0844 10.1486 15.7195 10.9689 16.0898C11.8455 16.4836 12.8158 16.5961 13.7603 16.4062C15.551 16.0476 17.0088 14.5336 17.2853 12.7242C17.3228 12.4828 17.3439 12.2414 17.3463 12C17.3463 11.8172 17.1846 11.639 16.9947 11.6484C16.8049 11.6578 16.6455 11.8031 16.6455 12Z" fill="#A7A7A7"/>
</svg>
