<svg width="23" height="23" viewBox="0 0 23 23" fill="none" xmlns="http://www.w3.org/2000/svg">
<path d="M19.4051 13.1286C19.1895 14.0192 18.859 14.8207 18.3809 15.5989C18.2989 15.7325 18.327 15.9153 18.4348 16.0254C18.7395 16.3301 19.0465 16.6348 19.3489 16.9395C19.3653 16.9559 19.3817 16.9746 19.3981 16.9911C19.4332 17.0262 19.4871 17.1246 19.5036 17.1786C19.5106 17.1996 19.5153 17.2207 19.52 17.2418C19.5457 17.3379 19.52 17.202 19.5246 17.2606C19.5293 17.3098 19.5293 17.3567 19.527 17.4059C19.5223 17.4762 19.5246 17.4223 19.527 17.4082C19.52 17.441 19.5129 17.4715 19.5036 17.502C19.4965 17.5231 19.4895 17.5442 19.4825 17.5629C19.5082 17.4996 19.466 17.5911 19.4614 17.5981C19.4496 17.6168 19.4379 17.6356 19.4262 17.6543C19.3746 17.734 19.466 17.6215 19.3957 17.6895C19.3864 17.6989 19.3793 17.7082 19.37 17.7153C19.3582 17.727 19.3489 17.7364 19.3371 17.7481C19.2809 17.8043 19.2246 17.8606 19.1707 17.9145C18.7864 18.2989 18.3996 18.6856 18.0153 19.07C17.9121 19.1731 17.8114 19.2786 17.7059 19.3793C17.6965 19.3887 17.6848 19.3981 17.6778 19.4051C17.6051 19.4778 17.7035 19.3911 17.6567 19.4239C17.6332 19.4403 17.6098 19.4543 17.5864 19.4684C17.5676 19.4801 17.5465 19.4895 17.5278 19.4989C17.5793 19.4731 17.5325 19.4965 17.5207 19.5012C17.4903 19.5106 17.4575 19.5176 17.427 19.527C17.3567 19.5481 17.4715 19.5317 17.3918 19.534C17.3496 19.5364 17.3051 19.5364 17.2629 19.534C17.1692 19.5317 17.3192 19.5551 17.2278 19.527C17.2067 19.52 17.1856 19.5176 17.1645 19.5106C17.1434 19.5035 17.1223 19.4965 17.1035 19.4895C17.1715 19.5153 17.0754 19.4731 17.0684 19.4684C17.0496 19.4567 17.0309 19.445 17.0121 19.4332C16.9371 19.384 17.0403 19.4684 16.977 19.4028C16.6582 19.0793 16.3325 18.7606 16.0114 18.4395C15.9036 18.3317 15.7184 18.3036 15.5848 18.3856C14.8114 18.8684 14.0098 19.1989 13.1192 19.4145C12.9692 19.4496 12.8614 19.602 12.8614 19.7543C12.8614 20.1879 12.8637 20.6239 12.8614 21.0575C12.8614 21.0879 12.8614 21.1161 12.859 21.1465C12.8567 21.2356 12.8778 21.1184 12.8567 21.1629C12.8473 21.184 12.845 21.2145 12.8379 21.2379C12.8332 21.2567 12.8262 21.2778 12.8192 21.2965C12.8426 21.2262 12.8121 21.3082 12.8051 21.3246C12.7934 21.3481 12.7793 21.3668 12.7653 21.3903C12.7559 21.4067 12.7114 21.4559 12.7582 21.4043C12.7254 21.4418 12.6903 21.477 12.6528 21.5098C12.7043 21.4653 12.6223 21.5286 12.6012 21.5426C12.5754 21.559 12.5473 21.5731 12.5215 21.5848C12.5778 21.559 12.5121 21.5848 12.4911 21.5918C12.4723 21.5965 12.4512 21.6012 12.4301 21.6082C12.341 21.634 12.47 21.6106 12.4137 21.6129C12.3856 21.6129 12.3598 21.6153 12.3317 21.6176C12.3176 21.6176 12.3012 21.6176 12.2871 21.6176C12.2121 21.6176 12.1371 21.6176 12.0621 21.6176C11.5114 21.6176 10.9629 21.6176 10.4121 21.6176C10.2668 21.6176 10.1192 21.62 9.97386 21.6176C9.95277 21.6176 9.92933 21.6153 9.90824 21.6153C9.82152 21.6129 9.93636 21.634 9.89183 21.6129C9.87074 21.6035 9.84027 21.6012 9.81683 21.5942C9.79808 21.5895 9.77699 21.5825 9.75824 21.5754C9.83089 21.6012 9.74183 21.566 9.73011 21.5614C9.71136 21.552 9.69496 21.5426 9.67855 21.5309C9.66918 21.5239 9.59652 21.4653 9.65277 21.5145C9.61527 21.4817 9.58011 21.4465 9.5473 21.409C9.59418 21.4606 9.51917 21.3645 9.50746 21.3434C9.49574 21.3223 9.48402 21.2989 9.4723 21.2754C9.50042 21.3364 9.47699 21.2871 9.47464 21.2731C9.46761 21.2473 9.46058 21.2239 9.45355 21.1981C9.44886 21.184 9.44652 21.1676 9.44418 21.1512C9.44886 21.1934 9.44886 21.1934 9.44418 21.1512C9.43246 20.6871 9.44183 20.2231 9.44183 19.7567C9.44183 19.6067 9.33402 19.4543 9.18402 19.4168C8.29339 19.2012 7.49183 18.8707 6.71371 18.3926C6.58011 18.3106 6.3973 18.3387 6.28714 18.4465C5.98246 18.7512 5.67777 19.0582 5.37308 19.3606C5.35668 19.377 5.33792 19.3934 5.32152 19.4098C5.28636 19.445 5.18793 19.4989 5.13402 19.5153C5.11293 19.5223 5.09183 19.527 5.07074 19.5317C4.97464 19.5575 5.11058 19.5317 5.05199 19.5364C5.00277 19.5411 4.95589 19.541 4.90668 19.5387C4.83636 19.534 4.89027 19.5364 4.90433 19.5387C4.87152 19.5317 4.84105 19.5246 4.81058 19.5153C4.78949 19.5082 4.76839 19.5012 4.74964 19.4942C4.81293 19.52 4.72152 19.4778 4.71449 19.4731C4.69574 19.4614 4.67699 19.4496 4.65824 19.4379C4.57855 19.3864 4.69105 19.4778 4.62308 19.4075C4.61371 19.3981 4.60433 19.3911 4.5973 19.3817C4.58558 19.37 4.57621 19.3606 4.56449 19.3489C4.50824 19.2926 4.45199 19.2364 4.39808 19.1825C4.01371 18.7981 3.62699 18.4114 3.24261 18.027C3.13949 17.9239 3.03402 17.8231 2.93324 17.7176C2.92386 17.7082 2.91449 17.6965 2.90746 17.6895C2.8348 17.6168 2.92152 17.7153 2.88871 17.6684C2.8723 17.645 2.85824 17.6215 2.84418 17.5981C2.83246 17.5793 2.82308 17.5582 2.81371 17.5395C2.83949 17.5911 2.81605 17.5442 2.81136 17.5325C2.80199 17.502 2.79496 17.4692 2.78558 17.4387C2.76449 17.3684 2.78089 17.4832 2.77855 17.4036C2.77621 17.3614 2.77621 17.3168 2.77855 17.2746C2.78089 17.1809 2.75746 17.3309 2.78558 17.2395C2.79261 17.2184 2.79496 17.1973 2.80199 17.1762C2.80902 17.1551 2.81605 17.134 2.82308 17.1153C2.7973 17.1832 2.83949 17.0871 2.84418 17.0801C2.85589 17.0614 2.86761 17.0426 2.87933 17.0239C2.92855 16.9489 2.84418 17.052 2.9098 16.9887C3.23324 16.67 3.55199 16.3442 3.87308 16.0231C3.98089 15.9153 4.00902 15.7301 3.92699 15.5965C3.44183 14.8207 3.11136 14.0192 2.89574 13.1286C2.86058 12.9786 2.70824 12.8707 2.55589 12.8707C2.1223 12.8707 1.68636 12.8731 1.25277 12.8707C1.2223 12.8707 1.19418 12.8707 1.16371 12.8684C1.07464 12.8661 1.19183 12.8871 1.1473 12.8661C1.12621 12.8567 1.09574 12.8543 1.0723 12.8473C1.05355 12.8426 1.03246 12.8356 1.01371 12.8286C1.08402 12.852 1.00199 12.8215 0.985582 12.8145C0.962144 12.8028 0.943394 12.7887 0.919957 12.7746C0.90355 12.7653 0.854332 12.7207 0.905894 12.7676C0.868394 12.7348 0.833238 12.6996 0.800425 12.6621C0.844957 12.7137 0.781675 12.6317 0.767613 12.6106C0.751207 12.5848 0.737144 12.5567 0.725425 12.5309C0.751206 12.5871 0.725425 12.5215 0.718394 12.5004C0.713707 12.4817 0.709019 12.4606 0.701988 12.4395C0.676206 12.3504 0.699644 12.4793 0.6973 12.4231C0.6973 12.395 0.694957 12.3692 0.692613 12.3411C0.692613 12.327 0.692613 12.3106 0.692613 12.2965C0.692613 12.2215 0.692613 12.1465 0.692613 12.0715C0.692613 11.5207 0.692613 10.9723 0.692613 10.4215C0.692613 10.2762 0.690269 10.1286 0.692613 9.98324C0.692613 9.96214 0.694957 9.93871 0.694957 9.91761C0.6973 9.83089 0.676207 9.94574 0.6973 9.90121C0.706675 9.88011 0.709019 9.84964 0.71605 9.82621C0.720738 9.80746 0.727769 9.78636 0.7348 9.76761C0.709019 9.84027 0.744175 9.75121 0.748863 9.73949C0.758238 9.72074 0.767613 9.70433 0.779332 9.68793C0.786363 9.67855 0.844957 9.60589 0.795738 9.66214C0.82855 9.62464 0.863706 9.58949 0.901206 9.55668C0.849644 9.60355 0.945738 9.52855 0.966832 9.51683C0.987925 9.50511 1.01136 9.49339 1.0348 9.48168C0.973863 9.5098 1.02308 9.48636 1.03714 9.48402C1.06293 9.47699 1.08636 9.46996 1.11214 9.46293C1.12621 9.45824 1.14261 9.45589 1.15902 9.45355C1.11683 9.45824 1.11683 9.45824 1.15902 9.45355C1.62308 9.44183 2.08714 9.45121 2.55355 9.45121C2.70355 9.45121 2.85589 9.34339 2.89339 9.19339C3.10902 8.30277 3.43949 7.50121 3.91761 6.72308C3.99964 6.58949 3.97152 6.40668 3.86371 6.29652C3.55902 5.99183 3.25199 5.68714 2.94964 5.38246C2.93324 5.36605 2.91683 5.3473 2.90043 5.33089C2.86527 5.29574 2.81136 5.1973 2.79496 5.14339C2.78793 5.1223 2.78324 5.10121 2.77855 5.08011C2.75277 4.98402 2.77855 5.11996 2.77386 5.06136C2.76918 5.01214 2.76918 4.96527 2.77152 4.91605C2.77621 4.84574 2.77386 4.89964 2.77152 4.91371C2.77855 4.88089 2.78558 4.85043 2.79496 4.81996C2.80199 4.79886 2.80902 4.77777 2.81605 4.75902C2.79027 4.8223 2.83246 4.73089 2.83714 4.72386C2.84886 4.70511 2.86058 4.68636 2.8723 4.66761C2.92386 4.58792 2.83246 4.70043 2.90277 4.63246C2.91214 4.62308 2.91918 4.61371 2.92855 4.60668C2.94027 4.59496 2.94964 4.58558 2.96136 4.57386C3.01761 4.51761 3.07386 4.46136 3.12777 4.40746C3.51214 4.02308 3.89886 3.63636 4.28324 3.25199C4.38636 3.14886 4.48714 3.04339 4.59261 2.94261C4.60199 2.93324 4.61371 2.92386 4.62074 2.91683C4.69339 2.84418 4.59496 2.93089 4.64183 2.89808C4.66527 2.88168 4.68871 2.86761 4.71214 2.85355C4.73089 2.84183 4.75199 2.83246 4.77074 2.82308C4.71918 2.84886 4.76605 2.82543 4.77777 2.82074C4.80824 2.81136 4.84105 2.80433 4.87152 2.79496C4.94183 2.77386 4.82699 2.79027 4.90668 2.78793C4.94886 2.78558 4.99339 2.78558 5.03558 2.78793C5.12933 2.79027 4.97933 2.76683 5.07074 2.79496C5.09183 2.80199 5.11293 2.80433 5.13402 2.81136C5.15511 2.81839 5.17621 2.82543 5.19496 2.83246C5.12699 2.80668 5.22308 2.84886 5.23011 2.85355C5.24886 2.86527 5.26761 2.87699 5.28636 2.88871C5.36136 2.93793 5.25824 2.85355 5.32152 2.91918C5.64027 3.24261 5.96605 3.56136 6.28714 3.88246C6.39496 3.99027 6.58011 4.01839 6.71371 3.93636C7.48949 3.45121 8.29105 3.12074 9.18167 2.90511C9.33167 2.86996 9.43949 2.71761 9.43949 2.56527C9.43949 2.13168 9.43714 1.69574 9.43949 1.26214C9.43949 1.23168 9.43949 1.20355 9.44183 1.17308C9.44417 1.08402 9.42308 1.20121 9.44418 1.15668C9.45355 1.13558 9.45589 1.10511 9.46292 1.08168C9.46761 1.06293 9.47464 1.04183 9.48167 1.02308C9.45824 1.09339 9.48871 1.01136 9.49574 0.994957C9.50746 0.971519 9.52152 0.952769 9.53558 0.929332C9.54496 0.912925 9.58949 0.863707 9.54261 0.915269C9.57543 0.877769 9.61058 0.842613 9.64808 0.8098C9.59652 0.854332 9.67855 0.79105 9.69964 0.776988C9.72542 0.760582 9.75355 0.746519 9.77933 0.7348C9.72308 0.760581 9.78871 0.7348 9.8098 0.727769C9.82855 0.723082 9.84964 0.718394 9.87074 0.711363C9.9598 0.685582 9.83089 0.709019 9.88714 0.706675C9.91527 0.706675 9.94105 0.704332 9.96918 0.701988C9.98324 0.701988 9.99964 0.701988 10.0137 0.701988C10.0887 0.701988 10.1637 0.701988 10.2387 0.701988C10.7895 0.701988 11.3379 0.701988 11.8887 0.701988C12.034 0.701988 12.1817 0.699644 12.327 0.701988C12.3481 0.701988 12.3715 0.704332 12.3926 0.704332C12.4793 0.706675 12.3645 0.685582 12.409 0.706675C12.4301 0.71605 12.4606 0.718394 12.484 0.725425C12.5028 0.730113 12.5239 0.737144 12.5426 0.744175C12.47 0.718394 12.559 0.75355 12.5707 0.758238C12.5895 0.767613 12.6059 0.776988 12.6223 0.788707C12.6317 0.795738 12.7043 0.854332 12.6481 0.805113C12.6856 0.837925 12.7207 0.873082 12.7536 0.910582C12.7067 0.859019 12.7817 0.955113 12.7934 0.976207C12.8051 0.9973 12.8168 1.02074 12.8285 1.04418C12.8004 0.983238 12.8239 1.03246 12.8262 1.04652C12.8332 1.0723 12.8403 1.09574 12.8473 1.12152C12.852 1.13558 12.8543 1.15199 12.8567 1.16839C12.852 1.12621 12.852 1.12621 12.8567 1.16839C12.8684 1.63246 12.859 2.09652 12.859 2.56293C12.859 2.71293 12.9668 2.86527 13.1168 2.90277C14.0075 3.11839 14.809 3.44886 15.5871 3.92699C15.7207 4.00902 15.9036 3.98089 16.0137 3.87308C16.3184 3.56839 16.6231 3.26136 16.9278 2.95902C16.9442 2.94261 16.9629 2.92621 16.9793 2.9098C17.0145 2.87464 17.1129 2.82074 17.1668 2.80433C17.1879 2.7973 17.209 2.79261 17.2301 2.78793C17.3262 2.76214 17.1903 2.78793 17.2489 2.78324C17.2981 2.77855 17.345 2.77855 17.3942 2.78089C17.4645 2.78558 17.4106 2.78324 17.3965 2.78089C17.4293 2.78793 17.4598 2.79496 17.4903 2.80433C17.5114 2.81136 17.5325 2.81839 17.5512 2.82543C17.4879 2.79964 17.5793 2.84183 17.5864 2.84652C17.6051 2.85824 17.6239 2.86996 17.6426 2.88168C17.7223 2.93324 17.6098 2.84183 17.6778 2.91214C17.6871 2.92152 17.6965 2.92855 17.7035 2.93793C17.7153 2.94964 17.7246 2.95902 17.7364 2.97074C17.7926 3.02699 17.8489 3.08324 17.9028 3.13714C18.2871 3.52152 18.6739 3.90824 19.0582 4.29261C19.1614 4.39574 19.2668 4.49652 19.3676 4.60199C19.377 4.61136 19.3864 4.62308 19.3934 4.63011C19.4661 4.70277 19.3793 4.60433 19.4121 4.65121C19.4286 4.67464 19.4426 4.69808 19.4567 4.72152C19.4684 4.74027 19.4778 4.76136 19.4871 4.78011C19.4614 4.72855 19.4848 4.77543 19.4895 4.78714C19.4989 4.81761 19.5059 4.85043 19.5153 4.88089C19.5364 4.95121 19.52 4.83636 19.5223 4.91605C19.5246 4.95824 19.5246 5.00277 19.5223 5.04496C19.52 5.13871 19.5434 4.98871 19.5153 5.08011C19.5082 5.10121 19.5059 5.1223 19.4989 5.14339C19.4918 5.16449 19.4848 5.18558 19.4778 5.20433C19.5035 5.13636 19.4614 5.23246 19.4567 5.23949C19.445 5.25824 19.4332 5.27699 19.4215 5.29574C19.3723 5.37074 19.4567 5.26761 19.391 5.33089C19.0676 5.64964 18.7489 5.97543 18.4278 6.29652C18.32 6.40433 18.2918 6.58949 18.3739 6.72308C18.859 7.49886 19.1895 8.30043 19.4051 9.19105C19.4403 9.34105 19.5926 9.44886 19.745 9.44886C20.1786 9.44886 20.6145 9.44652 21.0481 9.44886C21.0786 9.44886 21.1067 9.44886 21.1371 9.45121C21.2262 9.45355 21.109 9.43246 21.1535 9.45355C21.1746 9.46293 21.2051 9.46527 21.2285 9.4723C21.2473 9.47699 21.2684 9.48402 21.2871 9.49105C21.2168 9.46761 21.2989 9.49808 21.3153 9.50511C21.3387 9.51683 21.3575 9.53089 21.3809 9.54496C21.3973 9.55433 21.4465 9.59886 21.395 9.55199C21.4325 9.5848 21.4676 9.61996 21.5004 9.65746C21.4559 9.60589 21.5192 9.68793 21.5332 9.70902C21.5496 9.7348 21.5637 9.76293 21.5754 9.78871C21.5496 9.73246 21.5754 9.79808 21.5825 9.81918C21.5871 9.83792 21.5918 9.85902 21.5989 9.88011C21.6246 9.96918 21.6012 9.84027 21.6035 9.89652C21.6035 9.92464 21.6059 9.95043 21.6082 9.97855C21.6082 9.99261 21.6082 10.009 21.6082 10.0231C21.6082 10.0981 21.6082 10.1731 21.6082 10.2481C21.6082 10.7989 21.6082 11.3473 21.6082 11.8981C21.6082 12.0434 21.6106 12.1911 21.6082 12.3364C21.6082 12.3575 21.6059 12.3809 21.6059 12.402C21.6035 12.4887 21.6246 12.3739 21.6035 12.4184C21.5942 12.4395 21.5918 12.47 21.5848 12.4934C21.5801 12.5121 21.5731 12.5332 21.5661 12.552C21.5918 12.4793 21.5567 12.5684 21.552 12.5801C21.5426 12.5989 21.5332 12.6153 21.5215 12.6317C21.5145 12.6411 21.4559 12.7137 21.5051 12.6575C21.4723 12.695 21.4371 12.7301 21.3996 12.7629C21.4512 12.7161 21.3551 12.791 21.334 12.8028C21.3129 12.8145 21.2895 12.8262 21.266 12.8379C21.327 12.8098 21.2778 12.8332 21.2637 12.8356C21.2379 12.8426 21.2145 12.8496 21.1887 12.8567C21.1746 12.8614 21.1582 12.8637 21.1418 12.8661C21.184 12.8614 21.184 12.8614 21.1418 12.8661C20.6778 12.8778 20.2137 12.8684 19.7473 12.8684C19.5645 12.8684 19.3864 13.0301 19.3957 13.22C19.4051 13.4098 19.5504 13.5715 19.7473 13.5715C20.1879 13.5715 20.6309 13.5786 21.0715 13.5715C21.5918 13.5645 22.0418 13.2504 22.2317 12.7676C22.3137 12.5567 22.3114 12.3364 22.3114 12.1137C22.3114 11.5325 22.3114 10.9536 22.3114 10.3723C22.3114 10.22 22.3207 10.0653 22.309 9.91293C22.2715 9.38089 21.9035 8.90511 21.3762 8.78089C21.0973 8.71527 20.7903 8.74339 20.5067 8.74339C20.2535 8.74339 20.0028 8.74339 19.7496 8.74339C19.8621 8.83011 19.9746 8.91449 20.0895 9.00121C19.8645 8.07308 19.4942 7.17777 18.995 6.36214C18.9762 6.50511 18.9575 6.64574 18.9411 6.78871C19.2528 6.47699 19.5692 6.16996 19.8762 5.85355C20.2418 5.47621 20.3403 4.93011 20.1246 4.45199C20.0309 4.24339 19.8692 4.09339 19.7121 3.93402C19.3067 3.52855 18.9035 3.12543 18.4981 2.71996C18.395 2.61683 18.2942 2.50902 18.1864 2.41058C17.7809 2.03558 17.1364 1.95589 16.67 2.2723C16.4356 2.42933 16.2434 2.65902 16.0465 2.85589C15.8731 3.02933 15.6996 3.20277 15.5262 3.37621C15.6692 3.35746 15.8098 3.33871 15.9528 3.3223C15.1371 2.82308 14.2418 2.45277 13.3137 2.22777C13.4004 2.34027 13.4848 2.45277 13.5715 2.56761C13.5715 2.12699 13.5785 1.68402 13.5715 1.24339C13.5645 0.723082 13.2504 0.273082 12.7676 0.0832379C12.5567 0.0012066 12.3364 0.00355032 12.1137 0.00355032C11.5325 0.00355032 10.9535 0.00355032 10.3723 0.00355032C10.22 0.00355032 10.0653 -0.00582472 9.91293 0.00589403C9.38089 0.043394 8.90511 0.411363 8.78089 0.938707C8.71527 1.21761 8.74339 1.52464 8.74339 1.80824C8.74339 2.06136 8.74339 2.31214 8.74339 2.56527C8.83011 2.45277 8.91449 2.34027 9.00121 2.22543C8.07308 2.45043 7.17777 2.82074 6.36214 3.31996C6.50511 3.33871 6.64574 3.35746 6.78871 3.37386C6.47699 3.06214 6.16996 2.74574 5.85355 2.43871C5.47621 2.07308 4.93011 1.97464 4.45199 2.19027C4.24339 2.28402 4.09339 2.44574 3.93402 2.60277C3.52855 3.00824 3.12543 3.41136 2.71996 3.81683C2.61683 3.91996 2.50902 4.02074 2.41058 4.12855C2.03558 4.53402 1.95589 5.17855 2.2723 5.64496C2.42933 5.87933 2.65902 6.07152 2.85589 6.26839C3.02933 6.44183 3.20277 6.61527 3.37621 6.78871C3.35746 6.64574 3.33871 6.50511 3.3223 6.36214C2.82308 7.17777 2.45277 8.07308 2.22777 9.00121C2.34027 8.91449 2.45277 8.83011 2.56761 8.74339C2.12699 8.74339 1.68402 8.73636 1.24339 8.74339C0.723082 8.75043 0.273082 9.06449 0.0832378 9.5473C0.00120651 9.75824 0.00355032 9.97855 0.00355032 10.2012C0.00355032 10.7825 0.00355032 11.3614 0.00355032 11.9426C0.00355032 12.095 -0.00582472 12.2496 0.00589403 12.402C0.043394 12.934 0.411363 13.4098 0.938707 13.534C1.21761 13.5996 1.52464 13.5715 1.80824 13.5715C2.06136 13.5715 2.31214 13.5715 2.56527 13.5715C2.45277 13.4848 2.34027 13.4004 2.22543 13.3137C2.45043 14.2418 2.82074 15.1371 3.31996 15.9528C3.33871 15.8098 3.35746 15.6692 3.37386 15.5262C3.06214 15.8379 2.74574 16.145 2.43871 16.4614C2.07308 16.8387 1.97464 17.3848 2.19027 17.8629C2.28402 18.0715 2.44574 18.2215 2.60277 18.3809C3.00824 18.7864 3.41136 19.1895 3.81683 19.595C3.91996 19.6981 4.02074 19.8059 4.12855 19.9043C4.53402 20.2793 5.17855 20.359 5.64496 20.0426C5.87933 19.8856 6.07152 19.6559 6.26839 19.459C6.44183 19.2856 6.61527 19.1121 6.78871 18.9387C6.64574 18.9575 6.50511 18.9762 6.36214 18.9926C7.17777 19.4918 8.07308 19.8621 9.00121 20.0871C8.91449 19.9746 8.83011 19.8621 8.74339 19.7473C8.74339 20.1879 8.73636 20.6309 8.74339 21.0715C8.75042 21.5918 9.06449 22.0418 9.5473 22.2317C9.75824 22.3137 9.97855 22.3114 10.2012 22.3114C10.7825 22.3114 11.3614 22.3114 11.9426 22.3114C12.095 22.3114 12.2496 22.3207 12.402 22.309C12.934 22.2715 13.4098 21.9036 13.534 21.3762C13.5996 21.0973 13.5715 20.7903 13.5715 20.5067C13.5715 20.2535 13.5715 20.0028 13.5715 19.7496C13.4848 19.8621 13.4004 19.9746 13.3137 20.0895C14.2418 19.8645 15.1371 19.4942 15.9528 18.995C15.8098 18.9762 15.6692 18.9575 15.5262 18.9411C15.8379 19.2528 16.145 19.5692 16.4614 19.8762C16.8387 20.2418 17.3848 20.3403 17.8629 20.1246C18.0715 20.0309 18.2215 19.8692 18.3809 19.7121C18.7864 19.3067 19.1895 18.9035 19.595 18.4981C19.6981 18.395 19.8059 18.2942 19.9043 18.1864C20.2793 17.7809 20.359 17.1364 20.0426 16.67C19.8856 16.4356 19.6559 16.2434 19.459 16.0465C19.2856 15.8731 19.1121 15.6996 18.9387 15.5262C18.9575 15.6692 18.9762 15.8098 18.9926 15.9528C19.4918 15.1371 19.8621 14.2418 20.0871 13.3137C20.1293 13.1356 20.0309 12.9246 19.841 12.8801C19.6559 12.8426 19.452 12.9387 19.4051 13.1286Z" fill="#A7A7A7"/>
</svg>
