<svg width="13" height="13" viewBox="0 0 13 13" fill="none" xmlns="http://www.w3.org/2000/svg">
<g clip-path="url(#clip0_43_846)">
<path d="M10.637 8.63547L10.6443 10.0105L11.8942 10.0038L11.8796 7.25386L11.2547 7.25718L0.129812 7.31623L0.14441 10.0662L1.39439 10.0596L1.38709 8.68457L1.38643 8.55958L1.51143 8.55891L10.5113 8.51114L10.6363 8.51048L10.637 8.63547Z" fill="#A7A7A7" stroke="#20242A" stroke-width="0.25"/>
<path d="M10.637 3.62112L10.6443 2.24614L11.8942 2.25277L11.8796 5.00273L11.2547 4.99942L0.129812 4.94036L0.14441 2.1904L1.39439 2.19704L1.38709 3.57202L1.38643 3.69702L1.51143 3.69768L10.5113 3.74545L10.6363 3.74612L10.637 3.62112Z" fill="#A7A7A7" stroke="#20242A" stroke-width="0.25"/>
</g>
<defs>
<clipPath id="clip0_43_846">
<rect width="12" height="12" fill="white" transform="translate(0.0119629 0.128174)"/>
</clipPath>
</defs>
</svg>
