<svg width="25" height="24" viewBox="0 0 25 24" fill="none" xmlns="http://www.w3.org/2000/svg">
<path d="M10.7364 8.5H10.9406L10.9813 8.29989L11.4904 5.79989C11.8595 3.9876 12.6805 3.11167 13.3808 2.68181C13.7349 2.46446 14.066 2.35633 14.3067 2.30259C14.427 2.27574 14.5243 2.26257 14.5899 2.25613C14.6227 2.25291 14.6475 2.25138 14.6632 2.25065L14.6798 2.25005L14.6818 2.25L14.6821 2.25L14.6824 2.25L14.6826 2.25H18.0922L17.7104 3H16.5909V3.25C16.5909 3 16.5907 3 16.5905 3L16.5901 3L16.5892 3.00001L16.5868 3.00002L16.5802 3.00014L16.5592 3.00088C16.542 3.00168 16.5183 3.0032 16.4889 3.00608C16.4302 3.01184 16.3485 3.02309 16.2501 3.04507C16.0534 3.08898 15.7879 3.17616 15.5056 3.34944C14.9331 3.70083 14.3223 4.3874 14.055 5.70011L13.5459 8.20011L13.4849 8.5H13.7909H16.8195L16.4376 9.25H13.5364H13.3321L13.2914 9.45011L11.5096 18.2001C11.1405 20.0124 10.3195 20.8883 9.61921 21.3182C9.26514 21.5355 8.93404 21.6437 8.69326 21.6974C8.57296 21.7243 8.47568 21.7374 8.41008 21.7439C8.3773 21.7471 8.35252 21.7486 8.33681 21.7494L8.32024 21.7499L8.31818 21.75H8.31787H8.31762L8.31734 21.75H8.31729L4.87176 21.75L5.17721 21H6.28182V20.75C6.28182 21 6.28199 21 6.28216 21L6.28255 21L6.28345 21L6.2858 21L6.29257 20.9999L6.31419 20.9992C6.33209 20.9984 6.35687 20.9969 6.3877 20.9941C6.44929 20.9884 6.53538 20.9773 6.63921 20.9557C6.84655 20.9123 7.12716 20.8261 7.42506 20.654C8.02942 20.3048 8.67649 19.6183 8.94497 18.2999L10.7268 9.54989L10.7879 9.25H10.4818H8.08962L8.47144 8.5H10.7364Z" fill="#A7A7A7" stroke="#20242A" stroke-width="0.5"/>
</svg>
