<svg width="25" height="24" viewBox="0 0 25 24" fill="none" xmlns="http://www.w3.org/2000/svg">
<path d="M3.60986 21.5451C4.81758 21.5451 5.79663 20.566 5.79663 19.3583C5.79663 18.1506 4.81758 17.1715 3.60986 17.1715C2.40215 17.1715 1.4231 18.1506 1.4231 19.3583C1.4231 20.566 2.40215 21.5451 3.60986 21.5451Z" stroke="#A7A7A7" stroke-width="0.75" stroke-miterlimit="10" stroke-linecap="round" stroke-linejoin="round"/>
<path d="M10.023 12.1195C11.2307 12.1195 12.2097 11.1405 12.2097 9.93277C12.2097 8.72505 11.2307 7.746 10.023 7.746C8.81523 7.746 7.83618 8.72505 7.83618 9.93277C7.83618 11.1405 8.81523 12.1195 10.023 12.1195Z" stroke="#A7A7A7" stroke-width="0.75" stroke-miterlimit="10" stroke-linecap="round" stroke-linejoin="round"/>
<path d="M13.8638 19.3583C15.0715 19.3583 16.0505 18.3793 16.0505 17.1715C16.0505 15.9638 15.0715 14.9848 13.8638 14.9848C12.6561 14.9848 11.677 15.9638 11.677 17.1715C11.677 18.3793 12.6561 19.3583 13.8638 19.3583Z" stroke="#A7A7A7" stroke-width="0.75" stroke-miterlimit="10" stroke-linecap="round" stroke-linejoin="round"/>
<path d="M21.3901 6.82846C22.5979 6.82846 23.5769 5.84941 23.5769 4.6417C23.5769 3.43398 22.5979 2.45493 21.3901 2.45493C20.1824 2.45493 19.2034 3.43398 19.2034 4.6417C19.2034 5.84941 20.1824 6.82846 21.3901 6.82846Z" stroke="#A7A7A7" stroke-width="0.75" stroke-miterlimit="10" stroke-linecap="round" stroke-linejoin="round"/>
<path d="M8.79523 11.7434L4.83984 17.5496M20.2668 6.51324L14.99 15.2996M12.8388 15.2372L11.0503 11.868" stroke="#A7A7A7" stroke-width="0.75" stroke-miterlimit="10" stroke-linecap="round" stroke-linejoin="round"/>
</svg>
