<svg width="18" height="18" viewBox="0 0 18 18" fill="none" xmlns="http://www.w3.org/2000/svg">
<path d="M12.25 12.75V10.75H14V12.75V13H14.25H16.25V14.75H14.25H14V15V17H12.25V15V14.75H12H10V13H12H12.25V12.75ZM5.625 11.5H8V13.25H5.625C4.45268 13.25 3.5 14.2027 3.5 15.375V17H1.75V15.375C1.75 13.2391 3.48907 11.5 5.625 11.5ZM5.75 5.25C5.75 6.62857 6.87143 7.75 8.25 7.75C9.62857 7.75 10.75 6.62857 10.75 5.25C10.75 3.87143 9.62857 2.75 8.25 2.75C6.87143 2.75 5.75 3.87143 5.75 5.25ZM8.25 1C10.5937 1 12.5 2.90632 12.5 5.25C12.5 7.59368 10.5937 9.5 8.25 9.5C5.90632 9.5 4 7.59368 4 5.25C4 2.90632 5.90632 1 8.25 1Z" fill="white" stroke="#3787FF" stroke-width="0.5"/>
</svg>
