<svg width="17" height="17" viewBox="0 0 17 17" fill="none" xmlns="http://www.w3.org/2000/svg">
<path d="M12.0417 14.1667H1.77083C1.30135 14.1661 0.85126 13.9794 0.519286 13.6474C0.187312 13.3154 0.000562366 12.8653 0 12.3958L0 1.77083C0 0.79475 0.79475 0 1.77083 0H7.4375C7.51133 4.21453e-06 7.58332 0.0230836 7.64339 0.0660106C7.70346 0.108938 7.74862 0.169566 7.77254 0.239417L12.3767 13.6978C12.3946 13.7511 12.3997 13.8079 12.3914 13.8635C12.3831 13.9192 12.3617 13.972 12.329 14.0178C12.2963 14.0636 12.2532 14.1009 12.2032 14.1268C12.1533 14.1527 12.0979 14.1664 12.0417 14.1667ZM1.77083 0.708333C1.18504 0.708333 0.708333 1.18504 0.708333 1.77083V12.3958C0.708333 12.9816 1.18504 13.4583 1.77083 13.4583H11.5458L7.18462 0.708333H1.77083Z" fill="white"/>
<path d="M15.2291 16.9997H9.56242C9.49038 16.9997 9.42005 16.9777 9.36082 16.9367C9.30159 16.8957 9.25628 16.8376 9.23092 16.7702L8.16842 13.9368C8.13535 13.8489 8.13857 13.7515 8.17736 13.6659C8.21615 13.5804 8.28733 13.5137 8.37525 13.4807C8.46317 13.4476 8.56062 13.4508 8.64617 13.4896C8.73172 13.5284 8.79836 13.5996 8.83142 13.6875L9.80821 16.2913H15.2291C15.8149 16.2913 16.2916 15.8146 16.2916 15.2288V4.60384C16.2916 4.01805 15.8149 3.54134 15.2291 3.54134H8.49992C8.40599 3.54134 8.3159 3.50403 8.24948 3.43761C8.18307 3.37119 8.14575 3.28111 8.14575 3.18717C8.14575 3.09324 8.18307 3.00316 8.24948 2.93674C8.3159 2.87032 8.40599 2.83301 8.49992 2.83301H15.2291C16.2052 2.83301 16.9999 3.62776 16.9999 4.60384V15.2288C16.9999 16.2049 16.2052 16.9997 15.2291 16.9997Z" fill="white"/>
<path d="M9.56247 16.9997C9.49434 16.9998 9.42765 16.9802 9.37038 16.9433C9.31312 16.9064 9.26771 16.8537 9.2396 16.7917C9.21149 16.7296 9.20187 16.6608 9.2119 16.5934C9.22192 16.526 9.25117 16.463 9.29613 16.4118L11.7753 13.5785C11.8059 13.5434 11.8432 13.5148 11.8849 13.4942C11.9266 13.4735 11.972 13.4613 12.0184 13.4582C12.0649 13.4552 12.1115 13.4612 12.1556 13.4762C12.1996 13.4911 12.2404 13.5145 12.2754 13.5452C12.3104 13.5758 12.339 13.6131 12.3597 13.6548C12.3803 13.6965 12.3925 13.7419 12.3956 13.7883C12.3987 13.8348 12.3926 13.8813 12.3777 13.9254C12.3628 13.9695 12.3393 14.0102 12.3087 14.0452L9.82951 16.8786C9.79617 16.9166 9.7551 16.9471 9.70905 16.968C9.663 16.9888 9.61303 16.9997 9.56247 16.9997ZM6.72913 9.91638C6.65603 9.91649 6.58469 9.89393 6.52494 9.85182C6.46519 9.8097 6.41997 9.75009 6.39551 9.68121L4.9583 5.65717L3.52109 9.68121C3.48953 9.76969 3.42411 9.84201 3.33923 9.88226C3.25434 9.92251 3.15695 9.92739 3.06846 9.89583C2.97998 9.86427 2.90766 9.79885 2.86741 9.71397C2.82716 9.62909 2.82228 9.53169 2.85384 9.44321L4.62467 4.48487C4.72526 4.20296 5.19134 4.20296 5.29121 4.48487L7.06205 9.44321C7.0811 9.4966 7.08705 9.55379 7.07941 9.60996C7.07176 9.66613 7.05075 9.71965 7.01813 9.76601C6.98551 9.81237 6.94223 9.85023 6.89194 9.87639C6.84166 9.90256 6.78582 9.91627 6.72913 9.91638Z" fill="white"/>
<path d="M5.66659 7.79134H4.24992C4.15599 7.79134 4.0659 7.75403 3.99949 7.68761C3.93307 7.62119 3.89575 7.53111 3.89575 7.43717C3.89575 7.34324 3.93307 7.25316 3.99949 7.18674C4.0659 7.12032 4.15599 7.08301 4.24992 7.08301H5.66659C5.76052 7.08301 5.8506 7.12032 5.91702 7.18674C5.98344 7.25316 6.02075 7.34324 6.02075 7.43717C6.02075 7.53111 5.98344 7.62119 5.91702 7.68761C5.8506 7.75403 5.76052 7.79134 5.66659 7.79134ZM15.2291 7.79134H10.2708C10.1768 7.79134 10.0867 7.75403 10.0203 7.68761C9.9539 7.62119 9.91658 7.53111 9.91658 7.43717C9.91658 7.34324 9.9539 7.25316 10.0203 7.18674C10.0867 7.12032 10.1768 7.08301 10.2708 7.08301H15.2291C15.323 7.08301 15.4131 7.12032 15.4795 7.18674C15.5459 7.25316 15.5833 7.34324 15.5833 7.43717C15.5833 7.53111 15.5459 7.62119 15.4795 7.68761C15.4131 7.75403 15.323 7.79134 15.2291 7.79134Z" fill="white"/>
<path d="M12.3958 7.79167C12.3018 7.79167 12.2118 7.75435 12.1453 7.68793C12.0789 7.62151 12.0416 7.53143 12.0416 7.4375V6.72917C12.0416 6.63524 12.0789 6.54515 12.1453 6.47873C12.2118 6.41231 12.3018 6.375 12.3958 6.375C12.4897 6.375 12.5798 6.41231 12.6462 6.47873C12.7126 6.54515 12.7499 6.63524 12.7499 6.72917V7.4375C12.7499 7.53143 12.7126 7.62151 12.6462 7.68793C12.5798 7.75435 12.4897 7.79167 12.3958 7.79167ZM11.3333 12.0417C11.2578 12.0426 11.184 12.0192 11.1228 11.9751C11.0615 11.9309 11.0161 11.8683 10.9931 11.7964C10.9701 11.7245 10.9708 11.6471 10.995 11.5756C11.0193 11.5041 11.0658 11.4423 11.1279 11.3992C12.6784 10.2978 13.8124 8.05092 13.8124 7.43821C13.8124 7.34428 13.8498 7.25419 13.9162 7.18777C13.9826 7.12136 14.0727 7.08404 14.1666 7.08404C14.2605 7.08404 14.3506 7.12136 14.417 7.18777C14.4835 7.25419 14.5208 7.34428 14.5208 7.43821C14.5208 8.37179 13.1558 10.8276 11.5387 11.9772C11.4784 12.0192 11.4067 12.0417 11.3333 12.0417Z" fill="white"/>
<path d="M14.1666 12.7499C14.0782 12.7503 13.9929 12.7171 13.9279 12.6572C13.6708 12.422 11.4077 10.3317 11.0053 9.34145C10.9737 9.25522 10.9768 9.16007 11.0139 9.07608C11.0511 8.99208 11.1195 8.92581 11.2046 8.89125C11.2897 8.8567 11.3849 8.85656 11.4701 8.89086C11.5553 8.92517 11.6238 8.99123 11.6613 9.07512C11.951 9.78841 13.7409 11.5252 14.406 12.1344C14.4588 12.1826 14.4957 12.2456 14.5119 12.3152C14.5282 12.3847 14.523 12.4576 14.4971 12.5242C14.4712 12.5907 14.4258 12.6479 14.3668 12.6882C14.3079 12.7285 14.2381 12.75 14.1666 12.7499Z" fill="white"/>
</svg>
