<svg width="14" height="18" viewBox="0 0 14 18" fill="none" xmlns="http://www.w3.org/2000/svg">
<path d="M12.091 10.1214H10.4571V5.10957C10.4571 4.18775 10.0909 3.30369 9.43909 2.65187C8.78727 2.00005 7.90321 1.63386 6.98139 1.63386C6.05958 1.63386 5.17552 2.00005 4.5237 2.65187C3.87188 3.30369 3.50568 4.18775 3.50568 5.10957V10.1214H1.87183V5.10957C1.87183 3.75442 2.41015 2.45479 3.36838 1.49656C4.32661 0.538327 5.62625 0 6.98139 0C8.33653 0 9.63617 0.538327 10.5944 1.49656C11.5526 2.45479 12.091 3.75442 12.091 5.10957V10.1214Z" fill="white"/>
<path d="M11.966 9.9964H10.5821V5.10957C10.5821 4.1546 10.2027 3.23874 9.52748 2.56348C8.85222 1.88822 7.93636 1.50886 6.98139 1.50886C6.02642 1.50886 5.11057 1.88822 4.43531 2.56348C3.76004 3.23874 3.38068 4.1546 3.38068 5.10957V9.9964H1.99683V5.10957C1.99683 3.78758 2.52198 2.51973 3.45677 1.58495C4.39156 0.650158 5.6594 0.125 6.98139 0.125C8.30338 0.125 9.57123 0.650158 10.506 1.58495C11.4408 2.51973 11.966 3.78758 11.966 5.10957V9.9964Z" fill="white" stroke="#3787FF" stroke-width="0.25"/>
<path d="M13.463 8.84438V8.84589V17.0478C13.463 17.1072 13.4513 17.166 13.4285 17.2208C13.4058 17.2757 13.3725 17.3255 13.3305 17.3675C13.2885 17.4095 13.2387 17.4429 13.1838 17.4656L13.3751 17.9275L13.1838 17.4656C13.1289 17.4883 13.0701 17.5 13.0107 17.5H0.947979C0.889107 17.4998 0.830859 17.488 0.77654 17.4653C0.722035 17.4426 0.672545 17.4093 0.63089 17.3674C0.589237 17.3256 0.556239 17.2759 0.533782 17.2213L0.0713387 17.4114L0.533782 17.2213C0.511324 17.1667 0.499846 17.1081 0.500003 17.0491V17.0478V8.84589H0.500005L0.500002 8.84457C0.499846 8.78551 0.511324 8.72699 0.533782 8.67237C0.556238 8.61775 0.589234 8.56808 0.63089 8.5262C0.672546 8.48433 0.722036 8.45107 0.776537 8.42833C0.830878 8.40565 0.889143 8.39386 0.948022 8.39364L13.0107 8.39365L13.0143 8.39363C13.0858 8.39312 13.1563 8.41112 13.2188 8.44588L13.2187 8.44596L13.227 8.45038C13.2985 8.48837 13.3582 8.54514 13.3998 8.61457C13.4414 8.684 13.4632 8.76346 13.463 8.84438Z" stroke="white"/>
<path d="M8.77812 11.9182C8.77355 11.5911 8.67979 11.2715 8.50695 10.9938C8.33411 10.7162 8.08875 10.4909 7.79733 10.3424C7.5059 10.1939 7.17946 10.1278 6.85322 10.1511C6.52697 10.1745 6.21329 10.2865 5.946 10.475C5.67871 10.6635 5.46795 10.9214 5.33644 11.2209C5.20493 11.5204 5.15767 11.8501 5.19974 12.1744C5.24182 12.4988 5.37164 12.8055 5.5752 13.0615C5.77877 13.3175 6.04835 13.5131 6.3549 13.6272L6.2722 15.8124H7.7081L7.49509 13.6698C7.86861 13.5542 8.19501 13.3214 8.42606 13.006C8.65711 12.6906 8.78055 12.3092 8.77812 11.9182Z" fill="white"/>
</svg>
