<svg width="18" height="18" viewBox="0 0 18 18" fill="none" xmlns="http://www.w3.org/2000/svg">
<path d="M2.50757 3.55426H6.55411V7.6008H2.50757V3.55426Z" stroke="white" stroke-miterlimit="10" stroke-linecap="round" stroke-linejoin="round"/>
<path d="M8.18945 4.4176H11.6181" stroke="white" stroke-miterlimit="10" stroke-linecap="round" stroke-linejoin="round"/>
<path d="M8.18945 6.73718H11.6181" stroke="white" stroke-miterlimit="10" stroke-linecap="round" stroke-linejoin="round"/>
<path d="M2.50757 9.46143H11.4165" stroke="white" stroke-miterlimit="10" stroke-linecap="round" stroke-linejoin="round"/>
<path d="M2.50757 11.8198H11.4165" stroke="white" stroke-miterlimit="10" stroke-linecap="round" stroke-linejoin="round"/>
<path d="M2.50757 14.1777H11.4165" stroke="white" stroke-miterlimit="10" stroke-linecap="round" stroke-linejoin="round"/>
<path d="M15.1564 16.2612H2.84373C2.56115 16.2612 2.28134 16.2056 2.02028 16.0974C1.75923 15.9893 1.52203 15.8307 1.32225 15.6309C1.12247 15.431 0.96402 15.1938 0.855946 14.9327C0.747871 14.6716 0.692292 14.3918 0.692383 14.1092V1.73871H13.0051V14.1096" stroke="white" stroke-miterlimit="10" stroke-linecap="round" stroke-linejoin="round"/>
<path d="M17.3078 8.83588H13.0051V14.1095C13.0051 14.6801 13.2318 15.2273 13.6352 15.6308C14.0387 16.0342 14.5859 16.2609 15.1565 16.2609C15.727 16.2609 16.2742 16.0342 16.6777 15.6308C17.0812 15.2273 17.3078 14.6801 17.3078 14.1095V8.83588Z" stroke="white" stroke-miterlimit="10" stroke-linecap="round" stroke-linejoin="round"/>
</svg>
