<svg width="18" height="18" viewBox="0 0 18 18" fill="none" xmlns="http://www.w3.org/2000/svg">
<path d="M5.625 11.5H8V13.25H5.625C4.45268 13.25 3.5 14.2027 3.5 15.375V17H1.75V15.375C1.75 13.2391 3.48907 11.5 5.625 11.5ZM5.75 5.25C5.75 6.62857 6.87143 7.75 8.25 7.75C9.62857 7.75 10.75 6.62857 10.75 5.25C10.75 3.87143 9.62857 2.75 8.25 2.75C6.87143 2.75 5.75 3.87143 5.75 5.25ZM8.25 1C10.5937 1 12.5 2.90632 12.5 5.25C12.5 7.59368 10.5937 9.5 8.25 9.5C5.90632 9.5 4 7.59368 4 5.25C4 2.90632 5.90632 1 8.25 1Z" fill="white" stroke="#3787FF" stroke-width="0.5"/>
<path d="M10.125 11.5H12.5V13.25H10.125C8.95268 13.25 8 14.2027 8 15.375V17H6.25V15.375C6.25 13.2391 7.98907 11.5 10.125 11.5ZM10.25 5.25C10.25 6.62857 11.3714 7.75 12.75 7.75C14.1286 7.75 15.25 6.62857 15.25 5.25C15.25 3.87143 14.1286 2.75 12.75 2.75C11.3714 2.75 10.25 3.87143 10.25 5.25ZM12.75 1C15.0937 1 17 2.90632 17 5.25C17 7.59368 15.0937 9.5 12.75 9.5C10.4063 9.5 8.5 7.59368 8.5 5.25C8.5 2.90632 10.4063 1 12.75 1Z" fill="white" stroke="#3787FF" stroke-width="0.5"/>
</svg>
