<svg width="18" height="18" viewBox="0 0 18 18" fill="none" xmlns="http://www.w3.org/2000/svg">
<g clip-path="url(#clip0_0_2890)">
<path d="M14.025 5.25H13.725C13.3936 5.25 13.125 5.51863 13.125 5.85V7.275C13.125 7.60637 13.3936 7.875 13.725 7.875H14.025C14.3564 7.875 14.625 7.60637 14.625 7.275V5.85C14.625 5.51863 14.3564 5.25 14.025 5.25Z" fill="#3787FF" stroke="white"/>
<path fill-rule="evenodd" clip-rule="evenodd" d="M4.5 11.25H5.25V12.75H4.5V11.25ZM7.5 3H8.25V4.5H7.5V3ZM7.5 13.5H8.25V15H7.5V13.5ZM10.5 4.5H11.25V6H10.5V4.5ZM10.5 11.625H11.25V13.125H10.5V11.625ZM13.5 3.375H14.25V4.875H13.5V3.375ZM13.5 8.25H14.25V9.75H13.5V8.25ZM4.5 15.75H5.25V17.25H4.5V15.75Z" fill="white"/>
<path d="M11.025 6.375H10.725C10.3936 6.375 10.125 6.64363 10.125 6.975V10.65C10.125 10.9814 10.3936 11.25 10.725 11.25H11.025C11.3564 11.25 11.625 10.9814 11.625 10.65V6.975C11.625 6.64363 11.3564 6.375 11.025 6.375Z" fill="#3787FF" stroke="white"/>
<path d="M8.025 4.875H7.725C7.39363 4.875 7.125 5.14363 7.125 5.475V12.525C7.125 12.8564 7.39363 13.125 7.725 13.125H8.025C8.35637 13.125 8.625 12.8564 8.625 12.525V5.475C8.625 5.14363 8.35637 4.875 8.025 4.875Z" fill="#3787FF" stroke="white"/>
<path d="M5.025 12.975H4.725C4.39363 12.975 4.125 13.2436 4.125 13.575V14.775C4.125 15.1063 4.39363 15.375 4.725 15.375H5.025C5.35637 15.375 5.625 15.1063 5.625 14.775V13.575C5.625 13.2436 5.35637 12.975 5.025 12.975Z" fill="#3787FF" stroke="white"/>
</g>
<defs>
<clipPath id="clip0_0_2890">
<rect width="18" height="18" fill="white"/>
</clipPath>
</defs>
</svg>
