<svg width="16" height="20" viewBox="0 0 16 20" fill="none" xmlns="http://www.w3.org/2000/svg">
<path d="M14.4579 7.20673L14.1428 16.7423C14.116 17.559 13.772 18.333 13.1838 18.9002C12.5956 19.4674 11.8095 19.783 10.9924 19.7801H5.00657C4.19 19.783 3.40438 19.4678 2.81627 18.9013C2.22815 18.3348 1.88378 17.5616 1.85614 16.7455L1.5411 7.20673C1.5342 6.99784 1.61057 6.79477 1.7534 6.6422C1.89623 6.48962 2.09383 6.40002 2.30271 6.39313C2.5116 6.38624 2.71467 6.46261 2.86725 6.60544C3.01983 6.74827 3.10942 6.94586 3.11631 7.15475L3.43136 16.6927C3.44704 17.0999 3.6199 17.4851 3.91363 17.7675C4.20736 18.05 4.5991 18.2076 5.00657 18.2073H10.9924C11.4004 18.2075 11.7926 18.0495 12.0864 17.7664C12.3802 17.4833 12.5527 17.0973 12.5676 16.6895L12.8827 7.15475C12.8895 6.94586 12.9791 6.74827 13.1317 6.60544C13.2843 6.46261 13.4874 6.38624 13.6963 6.39313C13.9051 6.40002 14.1027 6.48962 14.2456 6.6422C14.3884 6.79477 14.4648 6.99784 14.4579 7.20673ZM15.4999 4.03346C15.4999 4.24234 15.4169 4.44268 15.2692 4.59038C15.1215 4.73809 14.9212 4.82106 14.7123 4.82106H1.28749C1.0786 4.82106 0.878268 4.73809 0.730563 4.59038C0.582858 4.44268 0.499878 4.24234 0.499878 4.03346C0.499878 3.82457 0.582858 3.62424 0.730563 3.47653C0.878268 3.32883 1.0786 3.24585 1.28749 3.24585H3.72907C3.97862 3.24652 4.2195 3.15432 4.40482 2.98719C4.59015 2.82007 4.70666 2.58997 4.7317 2.34167C4.78982 1.75923 5.0627 1.21928 5.49717 0.82703C5.93164 0.434782 6.49658 0.218334 7.08192 0.219857H8.91705C9.50239 0.218334 10.0673 0.434782 10.5018 0.82703C10.9363 1.21928 11.2091 1.75923 11.2673 2.34167C11.2923 2.58997 11.4088 2.82007 11.5941 2.98719C11.7795 3.15432 12.0203 3.24652 12.2699 3.24585H14.7115C14.9204 3.24585 15.1207 3.32883 15.2684 3.47653C15.4161 3.62424 15.4991 3.82457 15.4991 4.03346H15.4999ZM6.09898 3.24585H9.90156C9.79806 3.00936 9.73037 2.75878 9.70072 2.50235C9.68121 2.30821 9.59033 2.12822 9.44569 1.99726C9.30105 1.8663 9.11295 1.79369 8.91784 1.7935H7.08271C6.88759 1.79369 6.69949 1.8663 6.55485 1.99726C6.41022 2.12822 6.31934 2.30821 6.29983 2.50235C6.26992 2.75882 6.20275 3.00941 6.09898 3.24585ZM6.89211 15.1789V8.47242C6.89211 8.26353 6.80913 8.0632 6.66142 7.91549C6.51372 7.76779 6.31339 7.68481 6.1045 7.68481C5.89561 7.68481 5.69528 7.76779 5.54757 7.91549C5.39987 8.0632 5.31689 8.26353 5.31689 8.47242V15.1821C5.31689 15.3909 5.39987 15.5913 5.54757 15.739C5.69528 15.8867 5.89561 15.9697 6.1045 15.9697C6.31339 15.9697 6.51372 15.8867 6.66142 15.739C6.80913 15.5913 6.89211 15.3909 6.89211 15.1821V15.1789ZM10.6837 15.1789V8.47242C10.6837 8.26353 10.6007 8.0632 10.453 7.91549C10.3053 7.76779 10.1049 7.68481 9.89604 7.68481C9.68716 7.68481 9.48683 7.76779 9.33912 7.91549C9.19142 8.0632 9.10844 8.26353 9.10844 8.47242V15.1821C9.10844 15.3909 9.19142 15.5913 9.33912 15.739C9.48683 15.8867 9.68716 15.9697 9.89604 15.9697C10.1049 15.9697 10.3053 15.8867 10.453 15.739C10.6007 15.5913 10.6837 15.3909 10.6837 15.1821V15.1789Z" fill="#D53427"/>
</svg>
