<svg width="18" height="18" viewBox="0 0 18 18" fill="none" xmlns="http://www.w3.org/2000/svg">
<path d="M3.2035 13.9102H6.67423C6.78196 13.9109 6.88875 13.8902 6.98848 13.8495C7.08821 13.8087 7.17892 13.7487 7.25541 13.6729L12.9199 8.00019L15.2446 5.72457C15.3213 5.64848 15.3822 5.55794 15.4238 5.45819C15.4654 5.35844 15.4868 5.25145 15.4868 5.14339C15.4868 5.03533 15.4654 4.92834 15.4238 4.82859C15.3822 4.72884 15.3213 4.6383 15.2446 4.56221L11.7739 1.05056C11.6978 0.973834 11.6073 0.912937 11.5075 0.871379C11.4078 0.829822 11.3008 0.808426 11.1927 0.808426C11.0847 0.808426 10.9777 0.829822 10.8779 0.871379C10.7782 0.912937 10.6876 0.973834 10.6115 1.05056L8.30317 3.3671L2.62232 9.03977C2.54646 9.11626 2.48643 9.20697 2.4457 9.3067C2.40496 9.40643 2.38431 9.51322 2.38494 9.62095V13.0917C2.38494 13.3088 2.47118 13.517 2.62469 13.6705C2.7782 13.824 2.98641 13.9102 3.2035 13.9102ZM11.1927 2.78592L13.5093 5.10246L12.3469 6.26483L10.0304 3.94828L11.1927 2.78592ZM4.02207 9.95656L8.87617 5.10246L11.1927 7.41901L6.33861 12.2731H4.02207V9.95656ZM16.3006 15.5474H1.56637C1.34927 15.5474 1.14107 15.6336 0.987555 15.7871C0.834044 15.9406 0.747803 16.1488 0.747803 16.3659C0.747803 16.583 0.834044 16.7912 0.987555 16.9448C1.14107 17.0983 1.34927 17.1845 1.56637 17.1845H16.3006C16.5177 17.1845 16.7259 17.0983 16.8794 16.9448C17.0329 16.7912 17.1191 16.583 17.1191 16.3659C17.1191 16.1488 17.0329 15.9406 16.8794 15.7871C16.7259 15.6336 16.5177 15.5474 16.3006 15.5474Z" fill="#A7A7A7"/>
</svg>
