<svg width="21" height="22" viewBox="0 0 21 22" fill="none" xmlns="http://www.w3.org/2000/svg">
<path d="M10.625 6.53123H10.5V11C10.4995 11.0863 10.5161 11.172 10.5487 11.2519C10.5814 11.3319 10.6295 11.4046 10.6903 11.4659M10.625 6.53123V11V11.0007C10.6246 11.0706 10.638 11.1399 10.6644 11.2047C10.6908 11.2693 10.7297 11.3281 10.7789 11.3777L10.7787 11.3775L10.6903 11.4659M10.625 6.53123H11.6875M10.625 6.53123V6.40623L11.6875 6.53123M10.6903 11.4659L10.7791 11.3779M10.6903 11.4659L12.5707 13.3463L12.6591 13.2579M10.7791 11.3779L11.8125 10.7309L13.5024 12.4146L13.414 12.503M10.7791 11.3779L12.6591 13.2579M10.7791 11.3779L11.6875 6.53123M12.6591 13.2579L12.7475 13.3463L13.5026 12.5912L13.414 12.503M12.6591 13.2579L13.414 12.503M13.414 12.503L11.7243 10.8195L11.6875 10.7828V10.7309V6.53123M5.46984 9.54163L3.60567 10.7844L3.60513 10.7848C3.51123 10.8481 3.39954 10.8797 3.28638 10.8751L3.28639 10.875L3.28107 10.875C3.19405 10.8751 3.10833 10.8539 3.03145 10.8131C2.95467 10.7724 2.88905 10.7135 2.84034 10.6415C2.84027 10.6414 2.8402 10.6413 2.84013 10.6412L1.59703 8.77657L2.48012 8.18076L2.85633 8.73402L3.00599 8.9541L3.07979 8.69839C3.64083 6.75474 4.88398 5.0786 6.58111 3.97755C8.27823 2.87651 10.3155 2.42442 12.3191 2.70424C14.3226 2.98406 16.1581 3.97703 17.4886 5.50092C18.8191 7.02482 19.5555 8.97742 19.5625 11.0004C19.5625 12.7702 19.004 14.4948 17.9664 15.9285C16.9288 17.3624 15.4651 18.4322 13.7839 18.9854C12.1027 19.5387 10.2897 19.5471 8.6034 19.0096C6.95677 18.4848 5.51292 17.4655 4.46738 16.092L5.3229 15.4596C6.29932 16.7395 7.67015 17.664 9.22522 18.0891C10.8206 18.5251 12.5164 18.4099 14.0381 17.7621C15.5598 17.1142 16.8183 15.9717 17.6098 14.5195C18.4012 13.0672 18.6793 11.3904 18.3989 9.76043C18.1186 8.13048 17.2963 6.64288 16.0652 5.53852C14.834 4.43416 13.2661 3.77772 11.6154 3.67548C9.9647 3.57325 8.3278 4.03121 6.96979 4.97521C5.61179 5.91921 4.61219 7.29398 4.13287 8.87688L4.03369 9.20442L4.32063 9.01791L4.87386 8.65831L5.46984 9.54163Z" fill="#A7A7A7" stroke="#2E353F" stroke-width="0.25"/>
</svg>
